<svg width="393" height="281" viewBox="0 0 393 281" fill="none" xmlns="http://www.w3.org/2000/svg">
<g clip-path="url(#clip0_127_114)">
<path d="M393 0H0V281H393V0Z" fill="#0A283D"/>
<path d="M124.131 167.969C123.956 169.351 123.234 170.132 122.616 170.919C121.504 172.336 119.518 172.706 119.518 172.706C119.518 172.706 121.188 172.595 122.486 174.019C123.764 175.421 124.074 176.943 124.074 176.943C124.074 176.943 124.425 175.371 125.782 174.206C127.139 173.041 128.24 172.59 128.24 172.59C128.24 172.59 127.076 172.462 125.648 171.037C124.216 169.608 124.131 167.969 124.131 167.969Z" fill="white"/>
<path d="M142.853 99C142.593 101.054 141.52 102.214 140.603 103.382C138.95 105.488 136 106.038 136 106.038C136 106.038 138.482 105.872 140.41 107.989C142.307 110.071 142.768 112.331 142.768 112.331C142.768 112.331 143.291 109.996 145.306 108.266C147.322 106.536 148.957 105.865 148.957 105.865C148.957 105.865 147.228 105.675 145.107 103.559C142.98 101.435 142.853 99 142.853 99Z" fill="white"/>
<path d="M278.853 112C278.593 114.054 277.52 115.214 276.603 116.382C274.95 118.488 272 119.038 272 119.038C272 119.038 274.482 118.872 276.41 120.989C278.307 123.071 278.768 125.331 278.768 125.331C278.768 125.331 279.291 122.996 281.306 121.266C283.322 119.536 284.957 118.865 284.957 118.865C284.957 118.865 283.228 118.675 281.107 116.559C278.98 114.435 278.853 112 278.853 112Z" fill="white"/>
<path d="M303.527 160C303.355 161.451 302.647 162.27 302.041 163.095C300.949 164.583 299 164.971 299 164.971C299 164.971 300.64 164.854 301.913 166.349C303.167 167.82 303.471 169.416 303.471 169.416C303.471 169.416 303.816 167.767 305.148 166.545C306.479 165.323 307.559 164.849 307.559 164.849C307.559 164.849 306.417 164.715 305.016 163.22C303.611 161.72 303.527 160 303.527 160Z" fill="white"/>
<path d="M23.1447 198.409C44.7637 198.409 62.2894 180.856 62.2894 159.204C62.2894 137.552 44.7637 120 23.1447 120C1.52569 120 -16 137.552 -16 159.204C-16 180.856 1.52569 198.409 23.1447 198.409Z" fill="#0A304B"/>
<path d="M61.879 235.531C83.498 235.531 101.024 217.979 101.024 196.327C101.024 174.675 83.498 157.122 61.879 157.122C40.2599 157.122 22.7343 174.675 22.7343 196.327C22.7343 217.979 40.2599 235.531 61.879 235.531Z" fill="#0A304B"/>
<path d="M81.321 258.983C104.206 258.983 122.757 240.403 122.757 217.484C122.757 194.565 104.206 175.985 81.321 175.985C58.4365 175.985 39.8849 194.565 39.8849 217.484C39.8849 240.403 58.4365 258.983 81.321 258.983Z" fill="#0A304B"/>
<path d="M132.861 284.887C155.745 284.887 174.297 266.307 174.297 243.387C174.297 220.468 155.745 201.888 132.861 201.888C109.976 201.888 91.4247 220.468 91.4247 243.387C91.4247 266.307 109.976 284.887 132.861 284.887Z" fill="#0D334E"/>
<path d="M181.837 325.852C204.722 325.852 223.274 307.272 223.274 284.352C223.274 261.433 204.722 242.853 181.837 242.853C158.953 242.853 140.401 261.433 140.401 284.352C140.401 307.272 158.953 325.852 181.837 325.852Z" fill="#0D334E"/>
<path d="M234.642 313.143C257.527 313.143 276.078 294.563 276.078 271.644C276.078 248.724 257.527 230.144 234.642 230.144C211.758 230.144 193.206 248.724 193.206 271.644C193.206 294.563 211.758 313.143 234.642 313.143Z" fill="#0D334E"/>
<path d="M277.823 287.854C300.708 287.854 319.259 269.274 319.259 246.355C319.259 223.435 300.708 204.855 277.823 204.855C254.939 204.855 236.387 223.435 236.387 246.355C236.387 269.274 254.939 287.854 277.823 287.854Z" fill="#0A304B"/>
<path d="M366.436 223.999C389.321 223.999 407.872 205.419 407.872 182.499C407.872 159.58 389.321 141 366.436 141C343.552 141 325 159.58 325 182.499C325 205.419 343.552 223.999 366.436 223.999Z" fill="#0A304B"/>
<path d="M308.039 266.149C330.924 266.149 349.475 247.569 349.475 224.65C349.475 201.73 330.924 183.15 308.039 183.15C285.155 183.15 266.603 201.73 266.603 224.65C266.603 247.569 285.155 266.149 308.039 266.149Z" fill="#0A304B"/>
<path d="M393 250.606H-0.00012207V326.253H393V250.606Z" fill="#0A304B"/>
<path d="M85.8265 202.944H28.4941V270.151H85.8265V202.944Z" fill="#0D334E"/>
<path d="M364.345 216.32H329.489V265.257H364.345V216.32Z" fill="#0A304B"/>
<path d="M322.438 217.914C322.296 219.044 321.706 219.682 321.201 220.325C320.292 221.483 318.669 221.786 318.669 221.786C318.669 221.786 320.034 221.694 321.095 222.858C322.138 224.004 322.392 225.247 322.392 225.247C322.392 225.247 322.679 223.963 323.788 223.011C324.897 222.059 325.796 221.69 325.796 221.69C325.796 221.69 324.845 221.586 323.679 220.421C322.508 219.253 322.438 217.914 322.438 217.914Z" fill="#0D334E"/>
<path d="M135.817 232.84C135.622 234.382 134.816 235.254 134.127 236.131C132.886 237.713 130.669 238.126 130.669 238.126C130.669 238.126 132.534 238.002 133.982 239.591C135.407 241.155 135.753 242.853 135.753 242.853C135.753 242.853 136.146 241.099 137.659 239.799C139.173 238.5 140.401 237.996 140.401 237.996C140.401 237.996 139.103 237.853 137.51 236.264C135.912 234.669 135.817 232.84 135.817 232.84Z" fill="#0D334E"/>
<path d="M372.436 261.999C395.321 261.999 413.872 243.419 413.872 220.499C413.872 197.58 395.321 179 372.436 179C349.552 179 331 197.58 331 220.499C331 243.419 349.552 261.999 372.436 261.999Z" fill="#153B53"/>
<path d="M324.436 300.999C347.321 300.999 365.872 282.419 365.872 259.499C365.872 236.58 347.321 218 324.436 218C301.552 218 283 236.58 283 259.499C283 282.419 301.552 300.999 324.436 300.999Z" fill="#153B53"/>
<path d="M370.436 311.999C393.321 311.999 411.872 293.419 411.872 270.499C411.872 247.58 393.321 229 370.436 229C347.552 229 329 247.58 329 270.499C329 293.419 347.552 311.999 370.436 311.999Z" fill="#153B53"/>
<path d="M258.436 308.999C281.321 308.999 299.872 290.419 299.872 267.499C299.872 244.58 281.321 226 258.436 226C235.552 226 217 244.58 217 267.499C217 290.419 235.552 308.999 258.436 308.999Z" fill="#153B53"/>
<path d="M15.4361 243.999C38.3206 243.999 56.8721 225.419 56.8721 202.499C56.8721 179.58 38.3206 161 15.4361 161C-7.44845 161 -26 179.58 -26 202.499C-26 225.419 -7.44845 243.999 15.4361 243.999Z" fill="#153B53"/>
<path d="M64.4361 260.999C87.3206 260.999 105.872 242.419 105.872 219.499C105.872 196.58 87.3206 178 64.4361 178C41.5515 178 23 196.58 23 219.499C23 242.419 41.5515 260.999 64.4361 260.999Z" fill="#153B53"/>
<path d="M128 217L127.614 217.023L80.6215 219.826C78.4195 223.705 74.6601 226.798 70.0123 228.555L41 311.006L88.6547 324L100.236 292.504L128 217Z" fill="#031E3B"/>
<path d="M79.5952 198.785L79.0508 198.9L12.7201 212.872C10.2305 217.224 5.39757 221.173 -0.91864 224.014L-28.5488 312.273L41.3294 313.726L52.5929 279.893L79.5952 198.785Z" fill="#031E3B"/>
<path d="M254 207L253.643 207.017L128.422 212.889L93 288.625L182.223 318L202.313 286.931L254 207Z" fill="#002248"/>
<path d="M282 210.938C279.557 211.909 276.973 212.406 274.367 212.406C270.397 212.406 266.501 211.252 263.094 209.067C259.688 206.882 256.899 203.748 255.026 200L239.527 201.149L207 280.709L243.294 299L282 210.938Z" fill="#031E3B"/>
<path d="M70.5855 197.928H68.7401L51.3065 285.004L60.0396 313.44L64.1826 292.748L80.0056 213.716C79.8711 213.929 79.7386 214.114 79.6084 214.268C79.2943 214.641 78.9961 214.836 78.7206 214.849L68.3141 215.35L70.5855 197.928Z" fill="#002248"/>
<path d="M262.029 176.007C261.419 175.99 260.808 176.003 260.199 176.045L248.749 176.829L235.43 177.74L233.351 177.882L156.112 183.17L137.451 184.447L72.6628 188.882C71.3995 187.77 69.917 186.918 68.3048 186.377C66.6926 185.836 64.9841 185.617 63.2823 185.733L-9 190.681L-8.93497 191.57L-5.40989 240L58.8695 235.6C60.5715 235.483 62.252 235.163 63.8726 234.646C64.5442 234.431 65.2045 234.184 65.85 233.904C70.3139 231.967 73.9245 228.558 76.0394 224.282L121.173 221.192L121.544 221.167L215.81 214.714L216.079 214.696L234.619 213.427C236.861 217.565 240.197 221.025 244.271 223.437C248.346 225.849 253.007 227.122 257.757 227.122C260.873 227.122 263.965 226.574 266.887 225.502C271.91 223.66 276.242 220.343 279.301 215.996C282.36 211.65 284 206.482 284 201.188C284 197.473 283.193 193.803 281.633 190.423C280.073 187.044 277.796 184.035 274.958 181.601C272.246 179.275 269.08 177.524 265.656 176.456C264.465 176.191 263.25 176.04 262.029 176.007Z" fill="#0E447A"/>
<path d="M221.679 168.345C219.544 168.345 217.496 169.633 215.987 171.924C214.477 174.215 213.629 177.323 213.629 180.563C213.629 183.204 214.193 185.773 215.235 187.886C213.517 188.017 212.011 188.381 210.866 188.943C209.721 189.504 208.976 190.243 208.703 191.088C208.285 192.383 209.003 193.839 210.7 195.136C212.396 196.433 214.932 197.465 217.75 198.004C220.567 198.543 223.435 198.545 225.723 198.011C228.011 197.476 229.532 196.449 229.95 195.154C230.207 194.357 230.037 193.492 229.454 192.634C228.871 191.775 227.893 190.949 226.605 190.227C227.577 189.085 228.364 187.62 228.906 185.945C229.447 184.27 229.729 182.429 229.729 180.563C229.729 177.323 228.881 174.215 227.371 171.924C225.861 169.633 223.814 168.345 221.679 168.345Z" fill="#3E9A36"/>
<path d="M199.475 200.483C205.273 200.483 209.973 198.499 209.973 196.052C209.973 193.604 205.273 191.62 199.475 191.62C193.678 191.62 188.978 193.604 188.978 196.052C188.978 198.499 193.678 200.483 199.475 200.483Z" fill="#3E9A36"/>
<path d="M220.895 121.719C217.967 121.719 215.113 122.72 212.736 124.581C210.358 126.442 208.577 129.069 207.644 132.092C205.768 132.231 203.859 132.509 201.934 132.924C200.925 130.04 199.136 127.558 196.803 125.806C194.469 124.055 191.703 123.118 188.869 123.118C187.033 123.118 185.215 123.511 183.519 124.277C181.822 125.042 180.281 126.164 178.983 127.578C177.685 128.992 176.655 130.671 175.952 132.518C175.249 134.366 174.888 136.346 174.888 138.346C174.888 141.179 175.614 143.957 176.983 146.365C170.946 152.069 166.523 158.847 164.342 165.735C162.161 172.622 162.334 179.27 164.836 184.731C167.408 190.344 172.303 194.407 178.789 196.31C185.276 198.212 193.003 197.853 200.813 195.285C202.946 194.584 205.065 193.725 207.145 192.717C203.657 192.46 200.311 191.327 197.465 189.44C197.27 188.625 197.172 187.798 197.172 186.97C197.172 183.169 199.241 179.522 202.924 176.834C206.607 174.146 211.603 172.635 216.811 172.635C220.78 172.635 224.655 173.513 227.927 175.152C227.927 175.152 227.927 175.152 227.928 175.153C231.488 170.059 233.827 164.623 234.738 159.325C235.65 154.028 235.107 149.03 233.156 144.772C233.116 144.683 233.074 144.595 233.032 144.506C234.241 142.205 234.876 139.599 234.876 136.947C234.876 134.948 234.515 132.967 233.812 131.12C233.109 129.272 232.08 127.593 230.781 126.179C229.483 124.765 227.942 123.644 226.245 122.878C224.549 122.113 222.731 121.719 220.895 121.719Z" fill="#7CC261"/>
<path d="M204.263 147.176C204.84 147.176 205.308 146.707 205.308 146.129C205.308 145.551 204.84 145.083 204.263 145.083C203.686 145.083 203.218 145.551 203.218 146.129C203.218 146.707 203.686 147.176 204.263 147.176Z" fill="#1B1A1B"/>
<path d="M208.688 146.516C209.265 146.516 209.733 146.047 209.733 145.469C209.733 144.891 209.265 144.423 208.688 144.423C208.111 144.423 207.643 144.891 207.643 145.469C207.643 146.047 208.111 146.516 208.688 146.516Z" fill="#1B1A1B"/>
<path d="M216.811 172.635C211.602 172.635 206.607 174.146 202.924 176.834C199.241 179.522 197.172 183.169 197.172 186.97C197.172 187.798 197.27 188.625 197.465 189.44C200.31 191.327 203.657 192.46 207.145 192.717C207.654 192.755 208.164 192.774 208.674 192.774C213.741 192.774 218.603 190.924 222.207 187.626C225.811 184.327 227.866 179.846 227.927 175.154C227.927 175.153 227.927 175.153 227.927 175.152C224.655 173.512 220.78 172.635 216.811 172.635Z" fill="#D6EEC1"/>
<path d="M188.955 148.612C194.838 148.612 199.607 143.836 199.607 137.944C199.607 132.052 194.838 127.276 188.955 127.276C183.072 127.276 178.303 132.052 178.303 137.944C178.303 143.836 183.072 148.612 188.955 148.612Z" fill="#FDFDFC"/>
<path d="M186.758 144.978C191.171 144.978 194.747 141.426 194.747 137.044C194.747 132.662 191.171 129.109 186.758 129.109C182.346 129.109 178.77 132.662 178.77 137.044C178.77 141.426 182.346 144.978 186.758 144.978Z" fill="black"/>
<path d="M187.008 139.023C188.118 139.023 189.017 138.122 189.017 137.011C189.017 135.901 188.118 135 187.008 135C185.899 135 185 135.901 185 137.011C185 138.122 185.899 139.023 187.008 139.023Z" fill="#FEFEFD"/>
<path d="M220.911 147.145C226.5 147.145 231.03 142.279 231.03 136.277C231.03 130.275 226.5 125.409 220.911 125.409C215.322 125.409 210.792 130.275 210.792 136.277C210.792 142.279 215.322 147.145 220.911 147.145Z" fill="#FDFDFC"/>
<path d="M219.313 142.611C223.542 142.611 226.969 139.178 226.969 134.943C226.969 130.709 223.542 127.276 219.313 127.276C215.085 127.276 211.657 130.709 211.657 134.943C211.657 139.178 215.085 142.611 219.313 142.611Z" fill="black"/>
<path d="M219.097 137.201C220.255 137.201 221.194 136.26 221.194 135.1C221.194 133.94 220.255 133 219.097 133C217.939 133 217 133.94 217 135.1C217 136.26 217.939 137.201 219.097 137.201Z" fill="#FDFDFC"/>
<path d="M207.383 149.885C205.426 150.385 203.694 151.438 202.57 152.814C201.446 154.189 201.02 155.773 201.388 157.218C201.578 157.966 201.974 158.653 202.553 159.236C203.001 158.453 203.684 157.732 204.541 157.135C205.398 156.538 206.406 156.084 207.476 155.81C208.998 155.422 210.569 155.42 211.923 155.805C213.277 156.19 214.332 156.938 214.908 157.924C215.486 157.235 215.894 156.485 216.107 155.716C216.32 154.948 216.334 154.176 216.149 153.448C215.782 152.003 214.652 150.816 213.008 150.148C211.364 149.48 209.34 149.385 207.383 149.885Z" fill="#1A1C1B"/>
<path d="M214.987 157.905C214.405 156.921 213.334 156.177 211.956 155.798C210.579 155.419 208.979 155.428 207.426 155.825C206.335 156.103 205.307 156.563 204.431 157.165C203.555 157.766 202.856 158.491 202.396 159.278C203.228 160.101 204.404 160.683 205.777 160.952C207.151 161.22 208.664 161.164 210.13 160.79C212.091 160.289 213.834 159.254 214.987 157.905Z" fill="#F45557"/>
<path d="M182.824 170.169C186.165 170.169 188.873 166.766 188.873 162.569C188.873 158.371 186.165 154.969 182.824 154.969C179.483 154.969 176.775 158.371 176.775 162.569C176.775 166.766 179.483 170.169 182.824 170.169Z" fill="#569546"/>
<path d="M189.157 177.971C190.676 177.971 191.907 176.591 191.907 174.887C191.907 173.184 190.676 171.803 189.157 171.803C187.639 171.803 186.408 173.184 186.408 174.887C186.408 176.591 187.639 177.971 189.157 177.971Z" fill="#569546"/>
<path d="M162.861 172.606C160.565 172.606 158.363 173.589 156.739 175.339C155.116 177.089 154.204 179.463 154.204 181.938C154.204 182.71 154.293 183.48 154.468 184.228C154.736 186.047 155.657 188.096 157.286 190.275C162.166 196.798 172.073 202.636 181.359 204.461C183.106 204.897 185.269 205.134 187.498 205.134C191.956 205.134 195.863 204.194 197.033 202.839C197.486 202.392 197.745 201.892 197.799 201.362C197.88 200.561 197.49 199.716 196.668 198.913C195.217 197.496 192.552 196.336 189.463 195.776C189.465 195.765 189.466 195.755 189.468 195.745C190.432 190.329 186.097 183.52 179.682 180.374C179.461 180.269 179.239 180.166 179.016 180.065C176.09 178.732 173.116 177.739 170.284 177.135C169.515 175.753 168.427 174.61 167.126 173.817C165.825 173.023 164.356 172.606 162.861 172.606Z" fill="#7CC261"/>
<path d="M199.586 172.194C198.52 172.19 197.541 172.549 196.705 173.25C195.869 173.95 195.193 174.98 194.714 176.279C194.236 177.578 193.965 179.122 193.917 180.822C193.87 182.522 194.046 184.345 194.435 186.186C195.022 188.923 196.059 191.599 197.418 193.883C198.777 196.166 200.399 197.959 202.084 199.039C202.084 199.039 202.085 199.039 202.084 199.039C202.242 199.162 202.427 199.282 202.637 199.398C202.643 199.401 202.649 199.404 202.654 199.407C202.765 199.467 202.875 199.524 202.985 199.577C203.42 199.783 203.935 199.971 204.519 200.136C206.202 200.604 208.369 200.863 210.612 200.863C210.971 200.863 211.329 200.856 211.685 200.843C213.492 200.775 215.196 200.54 216.581 200.168C217.966 199.795 218.971 199.301 219.469 198.748C219.485 198.731 219.5 198.715 219.516 198.699C219.765 198.442 219.953 198.168 220.078 197.881C220.438 196.993 220.185 196.01 219.35 195.052C218.514 194.094 217.133 193.203 215.375 192.489C215.202 192.46 215.031 192.422 214.861 192.376C214.439 192.262 214.032 192.096 213.649 191.883C212.417 191.199 211.493 190.059 211.068 188.701C211.015 188.216 210.947 187.728 210.863 187.237C210.847 187.142 210.83 187.048 210.813 186.953C210.77 186.719 210.724 186.484 210.674 186.25C209.887 182.531 208.276 178.96 206.197 176.325C204.117 173.689 201.739 172.203 199.586 172.194Z" fill="#7CC261"/>
<path d="M193.413 182.039C193.413 182.039 193.696 187.036 195.39 190.902C197.085 194.768 200.333 198.257 200.333 198.257" stroke="#3E9A36"/>
<path d="M178.044 179.268C178.044 179.268 181.153 180.514 186.3 185.336C188.076 187 190.051 190.112 189.895 193.204C189.774 195.587 189.93 195.839 189.93 195.839C189.93 195.839 193.567 196.927 195.873 197.996C197.706 198.845 197.845 199.854 197.845 199.854" stroke="#3E9A36"/>
<path d="M172.592 184.584C174.11 184.584 175.341 183.203 175.341 181.5C175.341 179.797 174.11 178.416 172.592 178.416C171.073 178.416 169.842 179.797 169.842 181.5C169.842 183.203 171.073 184.584 172.592 184.584Z" fill="#569546"/>
<path d="M169.729 78V63.1H175.289C176.302 63.1 177.196 63.2867 177.969 63.66C178.756 64.02 179.369 64.5533 179.809 65.26C180.249 65.9533 180.469 66.8 180.469 67.8C180.469 68.7867 180.242 69.6333 179.789 70.34C179.349 71.0333 178.742 71.5667 177.969 71.94C177.196 72.3133 176.302 72.5 175.289 72.5H172.449V78H169.729ZM172.449 70.1H175.329C175.822 70.1 176.249 70.0067 176.609 69.82C176.969 69.62 177.249 69.3467 177.449 69C177.649 68.6533 177.749 68.2533 177.749 67.8C177.749 67.3333 177.649 66.9333 177.449 66.6C177.249 66.2533 176.969 65.9867 176.609 65.8C176.249 65.6 175.822 65.5 175.329 65.5H172.449V70.1ZM182.478 78V67.12H185.098V78H182.478ZM182.478 65.9V63.1H185.098V65.9H182.478ZM190.797 78L186.517 67.12H189.377L192.477 75.68H191.417L194.537 67.12H197.397L193.117 78H190.797ZM203.81 78.24C202.69 78.24 201.71 77.9867 200.87 77.48C200.03 76.9733 199.376 76.2867 198.91 75.42C198.443 74.5533 198.21 73.5933 198.21 72.54C198.21 71.4467 198.443 70.48 198.91 69.64C199.39 68.7867 200.036 68.1133 200.85 67.62C201.676 67.1267 202.596 66.88 203.61 66.88C204.463 66.88 205.21 67.02 205.85 67.3C206.503 67.58 207.056 67.9667 207.51 68.46C207.963 68.9533 208.31 69.52 208.55 70.16C208.79 70.7867 208.91 71.4667 208.91 72.2C208.91 72.3867 208.896 72.58 208.87 72.78C208.856 72.98 208.823 73.1533 208.77 73.3H200.37V71.3H207.29L206.05 72.24C206.17 71.6267 206.136 71.08 205.95 70.6C205.776 70.12 205.483 69.74 205.07 69.46C204.67 69.18 204.183 69.04 203.61 69.04C203.063 69.04 202.576 69.18 202.15 69.46C201.723 69.7267 201.396 70.1267 201.17 70.66C200.956 71.18 200.876 71.8133 200.93 72.56C200.876 73.2267 200.963 73.82 201.19 74.34C201.43 74.8467 201.776 75.24 202.23 75.52C202.696 75.8 203.23 75.94 203.83 75.94C204.43 75.94 204.936 75.8133 205.35 75.56C205.776 75.3067 206.11 74.9667 206.35 74.54L208.47 75.58C208.256 76.1 207.923 76.56 207.47 76.96C207.016 77.36 206.476 77.6733 205.85 77.9C205.236 78.1267 204.556 78.24 203.81 78.24ZM210.896 78V67.12H213.356V69.54L213.156 69.18C213.409 68.3667 213.802 67.8 214.336 67.48C214.882 67.16 215.536 67 216.296 67H216.936V69.32H215.996C215.249 69.32 214.649 69.5533 214.196 70.02C213.742 70.4733 213.516 71.1133 213.516 71.94V78H210.896ZM223.629 78.12C222.403 78.12 221.449 77.7867 220.769 77.12C220.103 76.44 219.769 75.4867 219.769 74.26V69.46H217.889V67.12H218.089C218.623 67.12 219.036 66.98 219.329 66.7C219.623 66.42 219.769 66.0133 219.769 65.48V64.64H222.389V67.12H224.889V69.46H222.389V74.12C222.389 74.48 222.449 74.7867 222.569 75.04C222.703 75.2933 222.903 75.4867 223.169 75.62C223.449 75.7533 223.803 75.82 224.229 75.82C224.323 75.82 224.429 75.8133 224.549 75.8C224.683 75.7867 224.809 75.7733 224.929 75.76V78C224.743 78.0267 224.529 78.0533 224.289 78.08C224.049 78.1067 223.829 78.12 223.629 78.12Z" fill="white"/>
<rect x="179" y="84" width="36" height="16" rx="6" fill="#FFF494"/>
<path d="M188.024 95V89.04H190.528C190.864 89.04 191.155 89.104 191.4 89.232C191.651 89.3547 191.843 89.528 191.976 89.752C192.115 89.976 192.184 90.2373 192.184 90.536C192.184 90.8453 192.107 91.12 191.952 91.36C191.803 91.5947 191.587 91.7733 191.304 91.896L191.296 91.704C191.531 91.7893 191.731 91.9093 191.896 92.064C192.067 92.2187 192.198 92.4 192.288 92.608C192.379 92.8107 192.424 93.0293 192.424 93.264C192.424 93.7973 192.254 94.2213 191.912 94.536C191.576 94.8453 191.118 95 190.536 95H188.024ZM188.664 94.4H190.536C190.915 94.4 191.216 94.3013 191.44 94.104C191.67 93.9013 191.784 93.624 191.784 93.272C191.784 92.9253 191.67 92.6507 191.44 92.448C191.216 92.24 190.915 92.136 190.536 92.136H188.664V94.4ZM188.664 91.56H190.48C190.8 91.56 191.056 91.4667 191.248 91.28C191.446 91.0933 191.544 90.8533 191.544 90.56C191.544 90.2613 191.446 90.0347 191.248 89.88C191.056 89.72 190.8 89.64 190.48 89.64H188.664V91.56ZM193.571 95V89.04H197.411V89.64H194.211V91.712H197.251V92.312H194.211V94.4H197.411V95H193.571ZM199.502 95V89.64H197.854V89.04H201.774V89.64H200.142V95H199.502ZM201.549 95L203.725 89.04H204.413L206.589 95H205.917L205.405 93.544H202.741L202.221 95H201.549ZM202.949 92.944H205.181L203.973 89.52H204.165L202.949 92.944Z" fill="#060606"/>
</g>
<defs>
<clipPath id="clip0_127_114">
<rect width="393" height="281" fill="white"/>
</clipPath>
</defs>
</svg>
