<svg width="345" height="100" viewBox="0 0 345 100" fill="none" xmlns="http://www.w3.org/2000/svg">
<g clip-path="url(#clip0_14_569)">
<rect width="345" height="100" rx="24" fill="#D2EBBE"/>
<path d="M92.8575 16.1949C89.5369 16.195 86.2619 16.9675 83.2914 18.4515C80.3209 19.9355 77.7364 22.0902 75.7423 24.7453C73.0676 25.1423 70.3716 25.7751 67.6774 26.6381C63.7709 23.2051 58.7481 21.3117 53.5475 21.3117C47.8707 21.3118 42.4264 23.5669 38.4123 27.581C34.3982 31.5951 32.1431 37.0394 32.143 42.7162C32.1429 45.6921 32.7633 48.6353 33.9646 51.3579C23.8431 64.354 17.5044 80.2198 16.2354 95.7346C14.9663 111.249 18.8619 125.25 27.1314 134.896C31.6712 140.191 37.3871 144.004 43.9119 146.09C50.4368 148.177 57.6263 148.49 65.0189 147.011C63.6001 146.385 62.2587 145.649 61.0028 144.807C53.1776 139.56 49.0388 130.463 49.4969 119.516C49.9549 108.569 54.9724 96.6699 63.4454 86.4358C71.4345 76.7861 81.8981 69.3401 92.773 65.5661C103.648 61.792 114.145 61.9638 122.194 66.0476C121.504 56.4647 118.692 47.8348 114.004 40.9166C114.176 39.8195 114.263 38.7107 114.263 37.6001C114.263 34.7891 113.709 32.0057 112.633 29.4087C111.558 26.8117 109.981 24.452 107.993 22.4643C106.006 20.4767 103.646 18.9 101.049 17.8243C98.4519 16.7486 95.6685 16.1949 92.8575 16.1949Z" fill="#7CC261"/>
<path d="M78.225 33.329C83.242 36.9679 92.5361 36.6182 98.9839 32.5478C105.432 28.4774 106.592 22.2278 101.574 18.5889C96.5574 14.9499 87.2633 15.2997 80.8155 19.3701C74.3677 23.4405 73.2079 29.6901 78.225 33.329Z" fill="#569546"/>
<path d="M84.5153 51.2243C96.3594 52.2329 106.486 46.8802 107.134 39.2687C107.783 31.6572 98.7066 24.6692 86.8625 23.6606C75.0185 22.652 64.8915 28.0047 64.2434 35.6162C63.5952 43.2277 72.6712 50.2157 84.5153 51.2243Z" fill="#7CC261"/>
<path d="M108.043 40.4C113.721 37.5307 114.892 30.3207 110.659 24.2959C106.427 18.2712 98.392 15.7132 92.7139 18.5824C87.0357 21.4517 85.8641 28.6617 90.097 34.6865C94.3299 40.7112 102.364 43.2693 108.043 40.4Z" fill="#FDFDFC"/>
<path d="M81.6076 61.0434C93.0821 66.494 106.042 65.004 110.555 57.7155C115.068 50.427 109.424 40.0998 97.9498 34.6492C86.4753 29.1986 73.515 30.6886 69.0022 37.9771C64.4895 45.2656 70.1331 55.5928 81.6076 61.0434Z" fill="#7CC261"/>
<path d="M56.1557 56.2923C64.8905 56.2923 71.9715 49.2113 71.9715 40.4765C71.9715 31.7416 64.8905 24.6606 56.1557 24.6606C47.4208 24.6606 40.3398 31.7416 40.3398 40.4765C40.3398 49.2113 47.4208 56.2923 56.1557 56.2923Z" fill="#FDFDFC"/>
<path d="M58.9912 49.4898C65.5345 49.4898 70.8389 44.1854 70.8389 37.6421C70.8389 31.0988 65.5345 25.7944 58.9912 25.7944C52.4479 25.7944 47.1436 31.0988 47.1436 37.6421C47.1436 44.1854 52.4479 49.4898 58.9912 49.4898Z" fill="#1B1A1B"/>
<path d="M57.8468 32.7295C58.2207 34.2558 57.7636 35.3674 57.421 36.4427C56.8036 38.3809 54.8252 39.5656 54.8252 39.5656C54.8252 39.5656 56.5705 38.7795 58.5397 39.7611C60.4772 40.7268 61.427 42.2053 61.427 42.2053C61.427 42.2053 61.1662 40.409 62.1477 38.6394C63.1293 36.8699 64.1258 35.9541 64.1258 35.9541C64.1258 35.9541 62.8266 36.2846 60.7185 35.3549C58.6035 34.4222 57.8468 32.7295 57.8468 32.7295Z" fill="white"/>
<path d="M111.907 35.4682C114.765 33.0774 113.762 27.3759 109.668 22.7336C105.573 18.0913 99.9368 16.2661 97.0786 18.657C94.2205 21.0478 95.2229 26.7493 99.3175 31.3916C103.412 36.0339 109.048 37.8591 111.907 35.4682Z" fill="#1C1C1B"/>
<path d="M107.167 62.8626C99.7328 63.0067 91.7407 65.2752 84.0415 69.4264C76.3423 73.5776 69.2244 79.456 63.4458 86.4357C54.9727 96.6698 49.9553 108.569 49.4972 119.516C49.0392 130.462 53.178 139.56 61.0032 144.807C62.2591 145.649 63.6005 146.385 65.0193 147.011C78.1971 144.374 91.2878 136.193 101.739 124.061C105.972 119.148 109.685 113.687 112.754 107.86C115.057 103.488 116.98 98.9443 118.485 94.3148C118.966 92.8356 119.404 91.3496 119.798 89.8599C119.339 87.5729 118.856 84.8886 119.452 82.465C119.905 80.6191 120.806 79.3319 121.926 78.5207C122.396 74.2748 122.486 70.0947 122.194 66.0475C117.84 63.8381 112.727 62.7546 107.167 62.8626Z" fill="#EEFFDF"/>
<path d="M104.189 22.4609C104.46 23.7769 104.043 24.7145 103.724 25.6243C103.148 27.2643 101.448 28.2209 101.448 28.2209C101.448 28.2209 102.94 27.5985 104.569 28.494C106.172 29.375 106.929 30.6665 106.929 30.6665C106.929 30.6665 106.761 29.1229 107.639 27.6375C108.516 26.1522 109.382 25.3975 109.382 25.3975C109.382 25.3975 108.278 25.643 106.531 24.7879C104.777 23.93 104.189 22.4609 104.189 22.4609Z" fill="white"/>
<path d="M43.6017 86.3436C48.472 86.3436 52.4202 81.3904 52.4202 75.2804C52.4202 69.1703 48.472 64.2172 43.6017 64.2172C38.7314 64.2172 34.7832 69.1703 34.7832 75.2804C34.7832 81.3904 38.7314 86.3436 43.6017 86.3436Z" fill="#569546"/>
<path d="M27.5997 93.4305C29.8135 93.4305 31.6081 91.4205 31.6081 88.9411C31.6081 86.4616 29.8135 84.4517 27.5997 84.4517C25.3859 84.4517 23.5913 86.4616 23.5913 88.9411C23.5913 91.4205 25.3859 93.4305 27.5997 93.4305Z" fill="#569546"/>
<path d="M39.7261 112.625C44.1536 112.625 47.7429 108.246 47.7429 102.845C47.7429 97.4431 44.1536 93.0642 39.7261 93.0642C35.2985 93.0642 31.7092 97.4431 31.7092 102.845C31.7092 108.246 35.2985 112.625 39.7261 112.625Z" fill="#569546"/>
<path d="M54.6471 66.3973C62.8824 66.3973 69.5584 62.7363 69.5584 58.2201C69.5584 53.704 62.8824 50.043 54.6471 50.043C46.4118 50.043 39.7358 53.704 39.7358 58.2201C39.7358 62.7363 46.4118 66.3973 54.6471 66.3973Z" fill="#7CC261"/>
<path d="M79.6064 41.5613C80.4477 41.5613 81.1296 40.8793 81.1296 40.0381C81.1296 39.1968 80.4477 38.5149 79.6064 38.5149C78.7652 38.5149 78.0833 39.1968 78.0833 40.0381C78.0833 40.8793 78.7652 41.5613 79.6064 41.5613Z" fill="#1B1A1B"/>
<path d="M85.4382 39.8682C86.2795 39.8682 86.9614 39.1862 86.9614 38.345C86.9614 37.5037 86.2795 36.8218 85.4382 36.8218C84.597 36.8218 83.915 37.5037 83.915 38.345C83.915 39.1862 84.597 39.8682 85.4382 39.8682Z" fill="#1B1A1B"/>
<path d="M87.685 43.8008C85.5029 43.8009 83.4102 44.6635 81.8671 46.199C80.3241 47.7344 79.4572 49.8169 79.457 51.9884C79.4569 53.1127 79.6895 54.2249 80.1402 55.2558C80.818 54.3118 81.7241 53.5401 82.7806 53.007C83.837 52.474 85.0122 52.1955 86.2053 52.1956C87.9024 52.1956 89.5475 52.7589 90.8627 53.7903C92.1779 54.8216 93.0825 56.2579 93.4239 57.8564C94.2117 57.0934 94.838 56.181 95.2656 55.1732C95.6932 54.1653 95.9136 53.0824 95.9136 51.9884C95.9135 49.8168 95.0465 47.7342 93.5033 46.1987C91.9601 44.6632 89.8672 43.8007 87.685 43.8008Z" fill="#1A1C1B"/>
<path d="M93.4233 57.8563C93.0819 56.2578 92.1773 54.8216 90.8621 53.7902C89.5469 52.7589 87.9018 52.1956 86.2047 52.1956C85.0116 52.1955 83.8364 52.4739 82.78 53.007C81.7235 53.54 80.8175 54.3117 80.1396 55.2558C80.7791 56.718 81.8337 57.9626 83.174 58.8368C84.5143 59.711 86.0819 60.1767 87.6844 60.1767C89.8281 60.1767 91.8871 59.3441 93.4233 57.8563Z" fill="#F45557"/>
<path d="M63.7623 86.14C65.3657 91.5914 67.4501 93.1147 70.0154 92.9543C72.5808 92.794 75.8677 85.5789 78.7538 81.7308C82.0444 77.3433 88.5198 76.751 92.5427 80.1274C97.0322 83.8953 94.3866 92.3931 91.5005 96.8024C88.7685 100.976 77.1194 113.183 69.5344 112.756C56.8484 112.042 50.6147 101.372 47.889 96.3214C45.3474 91.612 63.7623 86.14 63.7623 86.14Z" fill="#7CC261"/>
<path d="M63.5127 85.8787C63.4281 89.0477 67.7392 98.1021 73.3441 91.2035" stroke="#569546" stroke-width="3" stroke-linecap="round"/>
<path d="M50.0615 98.9644C53.5153 104.093 62.832 114.117 68.7234 115.743" stroke="#569546" stroke-width="3" stroke-linecap="round"/>
<path d="M125.218 77.4295C124.055 77.4653 122.906 77.8104 121.926 78.5207C120.806 79.3319 119.905 80.6192 119.451 82.465C118.856 84.8886 119.339 87.5729 119.797 89.8599C120.138 91.5563 120.464 93.0339 120.328 94.024C120.201 94.9431 119.473 94.8849 118.485 94.3149C116.979 98.9443 115.057 103.488 112.754 107.86C118.657 110.192 128.374 110.289 133.114 106.891C135.738 105.011 135.079 93.3829 134.357 89.3744C133.636 85.366 132.503 83.3462 131.472 81.0967C130.406 78.7697 127.776 77.3507 125.218 77.4295Z" fill="#569546"/>
<path d="M167.264 25V15H164.176V13.08H172.496V15H169.456V25H167.264ZM173.648 25V12.888H175.744V18.008L175.456 17.704C175.659 17.1813 175.989 16.7867 176.448 16.52C176.917 16.2427 177.461 16.104 178.08 16.104C178.72 16.104 179.285 16.2427 179.776 16.52C180.277 16.7973 180.667 17.1867 180.944 17.688C181.221 18.1787 181.36 18.7493 181.36 19.4V25H179.264V19.896C179.264 19.512 179.189 19.1813 179.04 18.904C178.891 18.6267 178.683 18.4133 178.416 18.264C178.16 18.104 177.856 18.024 177.504 18.024C177.163 18.024 176.859 18.104 176.592 18.264C176.325 18.4133 176.117 18.6267 175.968 18.904C175.819 19.1813 175.744 19.512 175.744 19.896V25H173.648ZM185.772 25.192C185.164 25.192 184.636 25.0907 184.188 24.888C183.74 24.6853 183.394 24.3973 183.148 24.024C182.903 23.64 182.78 23.1973 182.78 22.696C182.78 22.216 182.887 21.7893 183.1 21.416C183.314 21.032 183.644 20.712 184.092 20.456C184.54 20.2 185.106 20.0187 185.788 19.912L188.636 19.448V21.048L186.188 21.464C185.772 21.5387 185.463 21.672 185.26 21.864C185.058 22.056 184.956 22.3067 184.956 22.616C184.956 22.9147 185.068 23.1547 185.292 23.336C185.527 23.5067 185.815 23.592 186.156 23.592C186.594 23.592 186.978 23.5013 187.308 23.32C187.65 23.128 187.911 22.8667 188.092 22.536C188.284 22.2053 188.38 21.8427 188.38 21.448V19.208C188.38 18.8347 188.231 18.5253 187.932 18.28C187.644 18.024 187.26 17.896 186.78 17.896C186.332 17.896 185.932 18.0187 185.58 18.264C185.239 18.4987 184.988 18.8133 184.828 19.208L183.116 18.376C183.287 17.9173 183.554 17.5227 183.916 17.192C184.29 16.8507 184.727 16.584 185.228 16.392C185.73 16.2 186.274 16.104 186.86 16.104C187.575 16.104 188.204 16.2373 188.748 16.504C189.292 16.76 189.714 17.1227 190.012 17.592C190.322 18.0507 190.476 18.5893 190.476 19.208V25H188.492V23.512L188.94 23.48C188.716 23.8533 188.45 24.168 188.14 24.424C187.831 24.6693 187.479 24.8613 187.084 25C186.69 25.128 186.252 25.192 185.772 25.192ZM183.756 14.76L185.628 12.28H188.108L189.996 14.76H187.916L186.876 13.48L185.836 14.76H183.756ZM189.308 13.512L190.044 11.192H192.412L191.02 13.512H189.308ZM193.47 28.52C193.235 28.52 193.006 28.4987 192.782 28.456C192.558 28.424 192.355 28.36 192.174 28.264V26.52C192.312 26.552 192.478 26.584 192.67 26.616C192.872 26.648 193.059 26.664 193.23 26.664C193.71 26.664 194.056 26.552 194.27 26.328C194.494 26.1147 194.691 25.8267 194.862 25.464L195.438 24.12L195.406 25.88L191.614 16.296H193.87L196.526 23.368H195.726L198.366 16.296H200.638L196.846 25.88C196.622 26.4347 196.35 26.9093 196.03 27.304C195.709 27.6987 195.336 27.9973 194.91 28.2C194.494 28.4133 194.014 28.52 193.47 28.52ZM208.6 25.096C207.619 25.096 206.856 24.8293 206.312 24.296C205.779 23.752 205.512 22.9893 205.512 22.008V18.168H204.008V16.296H204.168C204.595 16.296 204.926 16.184 205.16 15.96C205.395 15.736 205.512 15.4107 205.512 14.984V14.312H207.608V16.296H209.608V18.168H207.608V21.896C207.608 22.184 207.656 22.4293 207.752 22.632C207.859 22.8347 208.019 22.9893 208.232 23.096C208.456 23.2027 208.739 23.256 209.08 23.256C209.155 23.256 209.24 23.2507 209.336 23.24C209.443 23.2293 209.544 23.2187 209.64 23.208V25C209.491 25.0213 209.32 25.0427 209.128 25.064C208.936 25.0853 208.76 25.096 208.6 25.096ZM215.42 25.192C214.566 25.192 213.788 24.9947 213.084 24.6C212.39 24.2053 211.836 23.6667 211.42 22.984C211.014 22.3013 210.812 21.5227 210.812 20.648C210.812 19.7733 211.014 18.9947 211.42 18.312C211.836 17.6293 212.39 17.0907 213.084 16.696C213.777 16.3013 214.556 16.104 215.42 16.104H217.116C217.201 16.104 217.302 16.0933 217.42 16.072C217.548 16.0507 217.654 15.9867 217.74 15.88C217.836 15.7627 217.884 15.5707 217.884 15.304C217.884 15.1227 217.852 14.9253 217.788 14.712C217.724 14.4987 217.644 14.2853 217.548 14.072H219.356C219.462 14.296 219.548 14.52 219.612 14.744C219.686 14.9573 219.724 15.208 219.724 15.496C219.724 16.104 219.569 16.5733 219.26 16.904C218.95 17.2347 218.545 17.4533 218.044 17.56L218.188 16.984C218.731 17.3787 219.169 17.8907 219.5 18.52C219.841 19.1493 220.012 19.8587 220.012 20.648C220.012 21.5227 219.804 22.3013 219.388 22.984C218.972 23.6667 218.417 24.2053 217.724 24.6C217.03 24.9947 216.262 25.192 215.42 25.192ZM215.42 23.272C215.889 23.272 216.3 23.16 216.652 22.936C217.014 22.712 217.297 22.4027 217.5 22.008C217.713 21.6027 217.82 21.1493 217.82 20.648C217.82 20.136 217.713 19.688 217.5 19.304C217.297 18.9093 217.014 18.6 216.652 18.376C216.3 18.1413 215.889 18.024 215.42 18.024C214.94 18.024 214.518 18.1413 214.156 18.376C213.793 18.6 213.505 18.9093 213.292 19.304C213.089 19.688 212.988 20.136 212.988 20.648C212.988 21.1493 213.089 21.6027 213.292 22.008C213.505 22.4027 213.793 22.712 214.156 22.936C214.518 23.16 214.94 23.272 215.42 23.272ZM214.38 14.76L215.42 11.992H218.14L216.444 14.76H214.38ZM227.289 25V12.888H229.385V18.008L229.097 17.704C229.299 17.1813 229.63 16.7867 230.089 16.52C230.558 16.2427 231.102 16.104 231.721 16.104C232.361 16.104 232.926 16.2427 233.417 16.52C233.918 16.7973 234.307 17.1867 234.585 17.688C234.862 18.1787 235.001 18.7493 235.001 19.4V25H232.905V19.896C232.905 19.512 232.83 19.1813 232.681 18.904C232.531 18.6267 232.323 18.4133 232.057 18.264C231.801 18.104 231.497 18.024 231.145 18.024C230.803 18.024 230.499 18.104 230.233 18.264C229.966 18.4133 229.758 18.6267 229.609 18.904C229.459 19.1813 229.385 19.512 229.385 19.896V25H227.289ZM239.877 25.192C239.205 25.192 238.618 25.0427 238.117 24.744C237.626 24.4453 237.248 24.0293 236.981 23.496C236.725 22.9627 236.597 22.3387 236.597 21.624V16.296H238.693V21.448C238.693 21.8107 238.762 22.1307 238.901 22.408C239.05 22.6747 239.258 22.888 239.525 23.048C239.802 23.1973 240.112 23.272 240.453 23.272C240.794 23.272 241.098 23.1973 241.365 23.048C241.632 22.888 241.84 22.6693 241.989 22.392C242.138 22.1147 242.213 21.784 242.213 21.4V16.296H243.701C243.84 16.296 243.984 16.2533 244.133 16.168C244.293 16.072 244.373 15.848 244.373 15.496C244.373 15.3147 244.341 15.1173 244.277 14.904C244.213 14.6907 244.138 14.4773 244.053 14.264H245.861C245.968 14.488 246.053 14.712 246.117 14.936C246.192 15.1493 246.229 15.4 246.229 15.688C246.229 16.4667 245.978 17.0213 245.477 17.352C244.986 17.6827 244.357 17.8213 243.589 17.768L244.309 16.84V25H242.325V23.944C242.101 24.36 241.776 24.6747 241.349 24.888C240.922 25.0907 240.432 25.192 239.877 25.192ZM241.701 14.76C241.413 14.76 241.168 14.7173 240.965 14.632C240.773 14.536 240.608 14.4347 240.469 14.328C240.33 14.2107 240.192 14.1093 240.053 14.024C239.914 13.928 239.754 13.88 239.573 13.88C239.392 13.88 239.253 13.9493 239.157 14.088C239.061 14.216 239.013 14.4187 239.013 14.696H237.397C237.397 13.8427 237.589 13.2187 237.973 12.824C238.357 12.4187 238.821 12.216 239.365 12.216C239.664 12.216 239.914 12.2587 240.117 12.344C240.32 12.4293 240.496 12.5307 240.645 12.648C240.794 12.7653 240.933 12.8667 241.061 12.952C241.2 13.0373 241.349 13.08 241.509 13.08C241.722 13.08 241.872 13.0107 241.957 12.872C242.042 12.7227 242.085 12.5253 242.085 12.28H243.701C243.69 13.0907 243.493 13.7093 243.109 14.136C242.725 14.552 242.256 14.76 241.701 14.76ZM250.439 25.192C249.767 25.192 249.181 25.0427 248.679 24.744C248.189 24.4453 247.81 24.0293 247.543 23.496C247.287 22.9627 247.159 22.3387 247.159 21.624V16.296H249.255V21.448C249.255 21.8107 249.325 22.1307 249.463 22.408C249.613 22.6747 249.821 22.888 250.087 23.048C250.365 23.1973 250.674 23.272 251.015 23.272C251.357 23.272 251.661 23.1973 251.927 23.048C252.194 22.888 252.402 22.6693 252.551 22.392C252.701 22.1147 252.775 21.784 252.775 21.4V16.296H254.871V25H252.887V23.288L253.063 23.592C252.861 24.1253 252.525 24.5253 252.055 24.792C251.597 25.0587 251.058 25.192 250.439 25.192ZM259.472 25V16.296H261.568V25H259.472ZM259.488 14.76L260.528 11.992H263.248L261.552 14.76H259.488ZM267.496 25.192C266.632 25.192 265.853 24.9947 265.16 24.6C264.477 24.1947 263.939 23.6507 263.544 22.968C263.149 22.2747 262.952 21.496 262.952 20.632C262.952 19.768 263.149 18.9947 263.544 18.312C263.939 17.6293 264.477 17.0907 265.16 16.696C265.853 16.3013 266.632 16.104 267.496 16.104C268.115 16.104 268.691 16.216 269.224 16.44C269.757 16.6533 270.216 16.952 270.6 17.336C270.995 17.7093 271.277 18.1573 271.448 18.68L269.608 19.48C269.448 19.0427 269.176 18.6907 268.792 18.424C268.419 18.1573 267.987 18.024 267.496 18.024C267.037 18.024 266.627 18.136 266.264 18.36C265.912 18.584 265.635 18.8933 265.432 19.288C265.229 19.6827 265.128 20.136 265.128 20.648C265.128 21.16 265.229 21.6133 265.432 22.008C265.635 22.4027 265.912 22.712 266.264 22.936C266.627 23.16 267.037 23.272 267.496 23.272C267.997 23.272 268.435 23.1387 268.808 22.872C269.181 22.6053 269.448 22.248 269.608 21.8L271.448 22.632C271.277 23.1227 271 23.5653 270.616 23.96C270.232 24.344 269.773 24.648 269.24 24.872C268.707 25.0853 268.125 25.192 267.496 25.192ZM273.039 25V12.888H275.135V18.008L274.847 17.704C275.049 17.1813 275.38 16.7867 275.839 16.52C276.308 16.2427 276.852 16.104 277.471 16.104C278.111 16.104 278.676 16.2427 279.167 16.52C279.668 16.7973 280.057 17.1867 280.335 17.688C280.612 18.1787 280.751 18.7493 280.751 19.4V25H278.655V19.896C278.655 19.512 278.58 19.1813 278.431 18.904C278.281 18.6267 278.073 18.4133 277.807 18.264C277.551 18.104 277.247 18.024 276.895 18.024C276.553 18.024 276.249 18.104 275.983 18.264C275.716 18.4133 275.508 18.6267 275.359 18.904C275.209 19.1813 275.135 19.512 275.135 19.896V25H273.039ZM284.923 21.384V21.064C284.923 20.5947 284.992 20.1787 285.131 19.816C285.28 19.4533 285.467 19.1333 285.691 18.856C285.915 18.568 286.15 18.3067 286.395 18.072C286.726 17.7413 287.019 17.4373 287.275 17.16C287.542 16.872 287.675 16.536 287.675 16.152C287.675 15.9173 287.616 15.6987 287.499 15.496C287.382 15.2933 287.206 15.1333 286.971 15.016C286.747 14.8987 286.47 14.84 286.139 14.84C285.691 14.84 285.302 14.9787 284.971 15.256C284.651 15.5333 284.454 15.9013 284.379 16.36L282.427 15.88C282.523 15.2827 282.736 14.76 283.067 14.312C283.408 13.864 283.846 13.5173 284.379 13.272C284.923 13.016 285.526 12.888 286.187 12.888C286.966 12.888 287.627 13.0427 288.171 13.352C288.726 13.6613 289.147 14.0613 289.435 14.552C289.723 15.0427 289.867 15.56 289.867 16.104C289.867 16.5307 289.782 16.9093 289.611 17.24C289.44 17.5707 289.227 17.8747 288.971 18.152C288.726 18.4187 288.47 18.6853 288.203 18.952C287.862 19.272 287.563 19.608 287.307 19.96C287.051 20.312 286.923 20.7227 286.923 21.192V21.384H284.923ZM284.875 25V22.76H287.003V25H284.875Z" fill="#060606"/>
<path d="M168.2 42.144C167.568 42.144 167.012 42.012 166.532 41.748C166.052 41.484 165.68 41.124 165.416 40.668C165.152 40.204 165.02 39.676 165.02 39.084V33.06H165.98V39.084C165.98 39.516 166.072 39.896 166.256 40.224C166.448 40.544 166.708 40.796 167.036 40.98C167.372 41.156 167.76 41.244 168.2 41.244C168.64 41.244 169.024 41.156 169.352 40.98C169.688 40.796 169.948 40.544 170.132 40.224C170.324 39.896 170.42 39.516 170.42 39.084V33.06H171.38V39.084C171.38 39.676 171.248 40.204 170.984 40.668C170.72 41.124 170.348 41.484 169.868 41.748C169.396 42.012 168.84 42.144 168.2 42.144ZM168.272 32.292L167.876 31.752C168.076 31.688 168.224 31.6 168.32 31.488C168.416 31.376 168.464 31.24 168.464 31.08C168.464 30.944 168.408 30.828 168.296 30.732C168.184 30.628 168.036 30.576 167.852 30.576C167.756 30.576 167.664 30.584 167.576 30.6C167.488 30.616 167.372 30.656 167.228 30.72L167.084 30.108C167.244 30.02 167.396 29.964 167.54 29.94C167.692 29.908 167.832 29.892 167.96 29.892C168.36 29.892 168.684 30 168.932 30.216C169.18 30.424 169.304 30.696 169.304 31.032C169.304 31.304 169.208 31.556 169.016 31.788C168.824 32.012 168.576 32.18 168.272 32.292ZM173.326 42V35.568H174.226V36.816L174.022 36.768C174.182 36.352 174.442 36.024 174.802 35.784C175.17 35.544 175.594 35.424 176.074 35.424C176.53 35.424 176.938 35.528 177.298 35.736C177.666 35.944 177.954 36.232 178.162 36.6C178.378 36.96 178.486 37.368 178.486 37.824V42H177.586V38.172C177.586 37.78 177.514 37.448 177.37 37.176C177.234 36.904 177.038 36.696 176.782 36.552C176.534 36.4 176.246 36.324 175.918 36.324C175.59 36.324 175.298 36.4 175.042 36.552C174.786 36.696 174.586 36.908 174.442 37.188C174.298 37.46 174.226 37.788 174.226 38.172V42H173.326ZM183.253 44.64C182.813 44.64 182.405 44.572 182.029 44.436C181.661 44.3 181.341 44.112 181.069 43.872C180.805 43.64 180.601 43.368 180.457 43.056L181.285 42.612C181.413 42.916 181.641 43.18 181.969 43.404C182.297 43.628 182.717 43.74 183.229 43.74C183.621 43.74 183.981 43.664 184.309 43.512C184.637 43.36 184.901 43.136 185.101 42.84C185.301 42.544 185.401 42.18 185.401 41.748V40.32L185.545 40.452C185.321 40.916 184.989 41.276 184.549 41.532C184.109 41.78 183.629 41.904 183.109 41.904C182.509 41.904 181.969 41.76 181.489 41.472C181.009 41.184 180.629 40.796 180.349 40.308C180.077 39.812 179.941 39.264 179.941 38.664C179.941 38.056 180.077 37.508 180.349 37.02C180.629 36.532 181.005 36.144 181.477 35.856C181.957 35.568 182.501 35.424 183.109 35.424C183.629 35.424 184.101 35.544 184.525 35.784C184.957 36.024 185.297 36.348 185.545 36.756L185.401 37.008V35.568H186.301V41.748C186.301 42.3 186.169 42.792 185.905 43.224C185.649 43.664 185.289 44.008 184.825 44.256C184.369 44.512 183.845 44.64 183.253 44.64ZM183.157 41.004C183.573 41.004 183.949 40.9 184.285 40.692C184.621 40.476 184.889 40.192 185.089 39.84C185.297 39.48 185.401 39.088 185.401 38.664C185.401 38.24 185.297 37.852 185.089 37.5C184.889 37.14 184.621 36.856 184.285 36.648C183.949 36.432 183.573 36.324 183.157 36.324C182.733 36.324 182.349 36.432 182.005 36.648C181.661 36.856 181.389 37.136 181.189 37.488C180.997 37.84 180.901 38.232 180.901 38.664C180.901 39.088 180.997 39.48 181.189 39.84C181.389 40.192 181.657 40.476 181.993 40.692C182.337 40.9 182.725 41.004 183.157 41.004ZM190.19 42V32.916H191.09V36.816L190.886 36.768C191.046 36.352 191.306 36.024 191.666 35.784C192.034 35.544 192.458 35.424 192.938 35.424C193.394 35.424 193.802 35.528 194.162 35.736C194.53 35.944 194.818 36.232 195.026 36.6C195.242 36.96 195.35 37.368 195.35 37.824V42H194.45V38.172C194.45 37.78 194.378 37.448 194.234 37.176C194.09 36.904 193.89 36.696 193.634 36.552C193.386 36.4 193.102 36.324 192.782 36.324C192.462 36.324 192.174 36.4 191.918 36.552C191.662 36.696 191.458 36.908 191.306 37.188C191.162 37.46 191.09 37.788 191.09 38.172V42H190.19ZM200.081 42.144C199.473 42.144 198.921 42 198.425 41.712C197.929 41.416 197.533 41.016 197.237 40.512C196.949 40 196.805 39.42 196.805 38.772C196.805 38.132 196.949 37.56 197.237 37.056C197.525 36.552 197.913 36.156 198.401 35.868C198.897 35.572 199.457 35.424 200.081 35.424C200.705 35.424 201.261 35.568 201.749 35.856C202.245 36.144 202.633 36.54 202.913 37.044C203.201 37.548 203.345 38.124 203.345 38.772C203.345 39.428 203.197 40.012 202.901 40.524C202.605 41.028 202.209 41.424 201.713 41.712C201.225 42 200.681 42.144 200.081 42.144ZM200.081 41.244C200.513 41.244 200.901 41.136 201.245 40.92C201.597 40.704 201.873 40.408 202.073 40.032C202.281 39.656 202.385 39.236 202.385 38.772C202.385 38.308 202.281 37.892 202.073 37.524C201.873 37.156 201.597 36.864 201.245 36.648C200.901 36.432 200.513 36.324 200.081 36.324C199.649 36.324 199.257 36.432 198.905 36.648C198.561 36.864 198.285 37.156 198.077 37.524C197.869 37.892 197.765 38.308 197.765 38.772C197.765 39.236 197.869 39.656 198.077 40.032C198.285 40.408 198.561 40.704 198.905 40.92C199.257 41.136 199.649 41.244 200.081 41.244ZM199.481 44.28V43.08H200.681V44.28H199.481ZM198.137 34.32L199.577 32.52H200.585L202.037 34.32H200.981L200.081 33.228L199.193 34.32H198.137ZM209.431 42.072C208.855 42.072 208.411 41.904 208.099 41.568C207.787 41.232 207.631 40.752 207.631 40.128V36.468H206.443V35.568H206.743C207.015 35.568 207.231 35.48 207.391 35.304C207.551 35.12 207.631 34.892 207.631 34.62V34.08H208.531V35.568H209.947V36.468H208.531V40.128C208.531 40.344 208.563 40.536 208.627 40.704C208.691 40.864 208.799 40.992 208.951 41.088C209.111 41.184 209.323 41.232 209.587 41.232C209.651 41.232 209.727 41.228 209.815 41.22C209.903 41.212 209.979 41.204 210.043 41.196V42C209.947 42.024 209.839 42.04 209.719 42.048C209.599 42.064 209.503 42.072 209.431 42.072ZM214.401 42.144C213.793 42.144 213.241 42 212.745 41.712C212.249 41.416 211.853 41.016 211.557 40.512C211.269 40 211.125 39.42 211.125 38.772C211.125 38.132 211.269 37.56 211.557 37.056C211.845 36.552 212.233 36.156 212.721 35.868C213.217 35.572 213.777 35.424 214.401 35.424H215.757C215.861 35.424 215.957 35.408 216.045 35.376C216.141 35.336 216.217 35.272 216.273 35.184C216.337 35.088 216.369 34.956 216.369 34.788C216.369 34.62 216.341 34.46 216.285 34.308C216.237 34.148 216.177 33.988 216.105 33.828H216.993C217.065 33.988 217.129 34.152 217.185 34.32C217.241 34.488 217.269 34.672 217.269 34.872C217.269 35.24 217.173 35.528 216.981 35.736C216.789 35.944 216.537 36.072 216.225 36.12L216.261 35.988C216.693 36.284 217.033 36.672 217.281 37.152C217.537 37.632 217.665 38.172 217.665 38.772C217.665 39.428 217.517 40.012 217.221 40.524C216.925 41.028 216.529 41.424 216.033 41.712C215.545 42 215.001 42.144 214.401 42.144ZM214.401 41.244C214.833 41.244 215.221 41.136 215.565 40.92C215.917 40.704 216.193 40.408 216.393 40.032C216.601 39.656 216.705 39.236 216.705 38.772C216.705 38.308 216.601 37.892 216.393 37.524C216.193 37.156 215.917 36.864 215.565 36.648C215.221 36.432 214.833 36.324 214.401 36.324C213.969 36.324 213.577 36.432 213.225 36.648C212.881 36.864 212.605 37.156 212.397 37.524C212.189 37.892 212.085 38.308 212.085 38.772C212.085 39.236 212.189 39.656 212.397 40.032C212.605 40.408 212.881 40.704 213.225 40.92C213.577 41.136 213.969 41.244 214.401 41.244ZM213.945 34.32L214.989 32.52H216.225L214.857 34.32H213.945ZM224.543 42.144C223.991 42.144 223.491 42.02 223.043 41.772C222.603 41.516 222.271 41.156 222.047 40.692L222.191 40.56V42H221.291V32.916H222.191V37.008L222.047 36.756C222.303 36.348 222.643 36.024 223.067 35.784C223.499 35.544 223.991 35.424 224.543 35.424C225.151 35.424 225.691 35.572 226.163 35.868C226.643 36.156 227.019 36.552 227.291 37.056C227.571 37.56 227.711 38.136 227.711 38.784C227.711 39.424 227.571 40 227.291 40.512C227.019 41.016 226.643 41.416 226.163 41.712C225.691 42 225.151 42.144 224.543 42.144ZM224.495 41.244C224.927 41.244 225.311 41.136 225.647 40.92C225.991 40.704 226.259 40.412 226.451 40.044C226.651 39.668 226.751 39.248 226.751 38.784C226.751 38.312 226.651 37.892 226.451 37.524C226.259 37.156 225.991 36.864 225.647 36.648C225.311 36.432 224.927 36.324 224.495 36.324C224.063 36.324 223.671 36.432 223.319 36.648C222.975 36.864 222.699 37.16 222.491 37.536C222.291 37.904 222.191 38.32 222.191 38.784C222.191 39.248 222.291 39.668 222.491 40.044C222.699 40.412 222.975 40.704 223.319 40.92C223.671 41.136 224.063 41.244 224.495 41.244ZM231.155 42.144C230.747 42.144 230.383 42.068 230.063 41.916C229.743 41.756 229.491 41.54 229.307 41.268C229.123 40.996 229.031 40.684 229.031 40.332C229.031 39.996 229.103 39.692 229.247 39.42C229.391 39.14 229.615 38.904 229.919 38.712C230.223 38.52 230.611 38.384 231.083 38.304L233.603 37.884V38.7L231.299 39.084C230.835 39.164 230.499 39.312 230.291 39.528C230.091 39.744 229.991 40 229.991 40.296C229.991 40.584 230.103 40.828 230.327 41.028C230.559 41.228 230.855 41.328 231.215 41.328C231.655 41.328 232.039 41.236 232.367 41.052C232.695 40.86 232.951 40.604 233.135 40.284C233.319 39.964 233.411 39.608 233.411 39.216V37.584C233.411 37.2 233.271 36.888 232.991 36.648C232.711 36.408 232.347 36.288 231.899 36.288C231.507 36.288 231.163 36.388 230.867 36.588C230.571 36.78 230.351 37.032 230.207 37.344L229.391 36.9C229.511 36.628 229.699 36.38 229.955 36.156C230.219 35.932 230.519 35.756 230.855 35.628C231.191 35.492 231.539 35.424 231.899 35.424C232.371 35.424 232.787 35.516 233.147 35.7C233.515 35.884 233.799 36.14 233.999 36.468C234.207 36.788 234.311 37.16 234.311 37.584V42H233.411V40.716L233.543 40.848C233.431 41.088 233.255 41.308 233.015 41.508C232.783 41.7 232.507 41.856 232.187 41.976C231.875 42.088 231.531 42.144 231.155 42.144ZM231.899 34.32C231.499 34.32 231.155 34.256 230.867 34.128C230.587 33.992 230.375 33.808 230.231 33.576C230.087 33.336 230.015 33.064 230.015 32.76H230.867C230.867 33.024 230.959 33.232 231.143 33.384C231.327 33.528 231.579 33.6 231.899 33.6C232.227 33.6 232.479 33.528 232.655 33.384C232.839 33.232 232.931 33.024 232.931 32.76H233.795C233.795 33.064 233.723 33.336 233.579 33.576C233.435 33.808 233.219 33.992 232.931 34.128C232.651 34.256 232.307 34.32 231.899 34.32ZM231.443 32.4L230.075 30.6H231.311L232.355 32.4H231.443ZM236.162 42V35.568H237.062V36.816L236.858 36.768C237.018 36.352 237.278 36.024 237.638 35.784C238.006 35.544 238.43 35.424 238.91 35.424C239.366 35.424 239.774 35.528 240.134 35.736C240.502 35.944 240.79 36.232 240.998 36.6C241.214 36.96 241.322 37.368 241.322 37.824V42H240.422V38.172C240.422 37.78 240.35 37.448 240.206 37.176C240.07 36.904 239.874 36.696 239.618 36.552C239.37 36.4 239.082 36.324 238.754 36.324C238.426 36.324 238.134 36.4 237.878 36.552C237.622 36.696 237.422 36.908 237.278 37.188C237.134 37.46 237.062 37.788 237.062 38.172V42H236.162ZM246.089 44.64C245.649 44.64 245.241 44.572 244.865 44.436C244.497 44.3 244.177 44.112 243.905 43.872C243.641 43.64 243.437 43.368 243.293 43.056L244.121 42.612C244.249 42.916 244.477 43.18 244.805 43.404C245.133 43.628 245.553 43.74 246.065 43.74C246.457 43.74 246.817 43.664 247.145 43.512C247.473 43.36 247.737 43.136 247.937 42.84C248.137 42.544 248.237 42.18 248.237 41.748V40.32L248.381 40.452C248.157 40.916 247.825 41.276 247.385 41.532C246.945 41.78 246.465 41.904 245.945 41.904C245.345 41.904 244.805 41.76 244.325 41.472C243.845 41.184 243.465 40.796 243.185 40.308C242.913 39.812 242.777 39.264 242.777 38.664C242.777 38.056 242.913 37.508 243.185 37.02C243.465 36.532 243.841 36.144 244.313 35.856C244.793 35.568 245.337 35.424 245.945 35.424C246.465 35.424 246.937 35.544 247.361 35.784C247.793 36.024 248.133 36.348 248.381 36.756L248.237 37.008V35.568H249.137V41.748C249.137 42.3 249.005 42.792 248.741 43.224C248.485 43.664 248.125 44.008 247.661 44.256C247.205 44.512 246.681 44.64 246.089 44.64ZM245.993 41.004C246.409 41.004 246.785 40.9 247.121 40.692C247.457 40.476 247.725 40.192 247.925 39.84C248.133 39.48 248.237 39.088 248.237 38.664C248.237 38.24 248.133 37.852 247.925 37.5C247.725 37.14 247.457 36.856 247.121 36.648C246.785 36.432 246.409 36.324 245.993 36.324C245.569 36.324 245.185 36.432 244.841 36.648C244.497 36.856 244.225 37.136 244.025 37.488C243.833 37.84 243.737 38.232 243.737 38.664C243.737 39.088 243.833 39.48 244.025 39.84C244.225 40.192 244.493 40.476 244.829 40.692C245.173 40.9 245.561 41.004 245.993 41.004ZM255.966 42.144C255.334 42.144 254.778 41.996 254.298 41.7C253.818 41.404 253.442 41.004 253.17 40.5C252.898 39.988 252.762 39.412 252.762 38.772C252.762 38.132 252.898 37.56 253.17 37.056C253.442 36.552 253.818 36.156 254.298 35.868C254.778 35.572 255.334 35.424 255.966 35.424C256.366 35.424 256.742 35.496 257.094 35.64C257.446 35.784 257.758 35.98 258.03 36.228C258.302 36.468 258.506 36.748 258.642 37.068L257.826 37.488C257.666 37.144 257.422 36.864 257.094 36.648C256.766 36.432 256.39 36.324 255.966 36.324C255.542 36.324 255.158 36.432 254.814 36.648C254.478 36.856 254.21 37.148 254.01 37.524C253.818 37.892 253.722 38.312 253.722 38.784C253.722 39.248 253.818 39.668 254.01 40.044C254.21 40.412 254.478 40.704 254.814 40.92C255.158 41.136 255.542 41.244 255.966 41.244C256.39 41.244 256.762 41.136 257.082 40.92C257.41 40.704 257.658 40.416 257.826 40.056L258.642 40.5C258.506 40.812 258.302 41.092 258.03 41.34C257.758 41.588 257.446 41.784 257.094 41.928C256.742 42.072 256.366 42.144 255.966 42.144ZM261.964 42.144C261.556 42.144 261.192 42.068 260.872 41.916C260.552 41.756 260.3 41.54 260.116 41.268C259.932 40.996 259.84 40.684 259.84 40.332C259.84 39.996 259.912 39.692 260.056 39.42C260.2 39.14 260.424 38.904 260.728 38.712C261.032 38.52 261.42 38.384 261.892 38.304L264.412 37.884V38.7L262.108 39.084C261.644 39.164 261.308 39.312 261.1 39.528C260.9 39.744 260.8 40 260.8 40.296C260.8 40.584 260.912 40.828 261.136 41.028C261.368 41.228 261.664 41.328 262.024 41.328C262.464 41.328 262.848 41.236 263.176 41.052C263.504 40.86 263.76 40.604 263.944 40.284C264.128 39.964 264.22 39.608 264.22 39.216V37.584C264.22 37.2 264.08 36.888 263.8 36.648C263.52 36.408 263.156 36.288 262.708 36.288C262.316 36.288 261.972 36.388 261.676 36.588C261.38 36.78 261.16 37.032 261.016 37.344L260.2 36.9C260.32 36.628 260.508 36.38 260.764 36.156C261.028 35.932 261.328 35.756 261.664 35.628C262 35.492 262.348 35.424 262.708 35.424C263.18 35.424 263.596 35.516 263.956 35.7C264.324 35.884 264.608 36.14 264.808 36.468C265.016 36.788 265.12 37.16 265.12 37.584V42H264.22V40.716L264.352 40.848C264.24 41.088 264.064 41.308 263.824 41.508C263.592 41.7 263.316 41.856 262.996 41.976C262.684 42.088 262.34 42.144 261.964 42.144ZM262.252 34.32L263.296 32.52H264.532L263.164 34.32H262.252ZM269.911 42.144C269.279 42.144 268.723 41.996 268.243 41.7C267.763 41.404 267.387 41.004 267.115 40.5C266.843 39.988 266.707 39.412 266.707 38.772C266.707 38.132 266.843 37.56 267.115 37.056C267.387 36.552 267.763 36.156 268.243 35.868C268.723 35.572 269.279 35.424 269.911 35.424C270.311 35.424 270.687 35.496 271.039 35.64C271.391 35.784 271.703 35.98 271.975 36.228C272.247 36.468 272.451 36.748 272.587 37.068L271.771 37.488C271.611 37.144 271.367 36.864 271.039 36.648C270.711 36.432 270.335 36.324 269.911 36.324C269.487 36.324 269.103 36.432 268.759 36.648C268.423 36.856 268.155 37.148 267.955 37.524C267.763 37.892 267.667 38.312 267.667 38.784C267.667 39.248 267.763 39.668 267.955 40.044C268.155 40.412 268.423 40.704 268.759 40.92C269.103 41.136 269.487 41.244 269.911 41.244C270.335 41.244 270.707 41.136 271.027 40.92C271.355 40.704 271.603 40.416 271.771 40.056L272.587 40.5C272.451 40.812 272.247 41.092 271.975 41.34C271.703 41.588 271.391 41.784 271.039 41.928C270.687 42.072 270.311 42.144 269.911 42.144ZM274.166 42V32.916H275.066V36.816L274.862 36.768C275.022 36.352 275.282 36.024 275.642 35.784C276.01 35.544 276.434 35.424 276.914 35.424C277.37 35.424 277.778 35.528 278.138 35.736C278.506 35.944 278.794 36.232 279.002 36.6C279.218 36.96 279.326 37.368 279.326 37.824V42H278.426V38.172C278.426 37.78 278.354 37.448 278.21 37.176C278.066 36.904 277.866 36.696 277.61 36.552C277.362 36.4 277.078 36.324 276.758 36.324C276.438 36.324 276.15 36.4 275.894 36.552C275.638 36.696 275.434 36.908 275.282 37.188C275.138 37.46 275.066 37.788 275.066 38.172V42H274.166ZM283.084 42V35.568H283.984V36.792L283.84 36.612C284.016 36.236 284.276 35.944 284.62 35.736C284.972 35.528 285.356 35.424 285.772 35.424C286.268 35.424 286.716 35.564 287.116 35.844C287.516 36.124 287.8 36.488 287.968 36.936L287.716 36.948C287.876 36.452 288.152 36.076 288.544 35.82C288.944 35.556 289.384 35.424 289.864 35.424C290.296 35.424 290.692 35.528 291.052 35.736C291.42 35.944 291.712 36.232 291.928 36.6C292.152 36.96 292.264 37.368 292.264 37.824V42H291.364V38.172C291.364 37.78 291.292 37.448 291.148 37.176C291.012 36.904 290.824 36.696 290.584 36.552C290.344 36.4 290.068 36.324 289.756 36.324C289.452 36.324 289.176 36.4 288.928 36.552C288.68 36.696 288.484 36.908 288.34 37.188C288.196 37.46 288.124 37.788 288.124 38.172V42H287.224V38.172C287.224 37.78 287.152 37.448 287.008 37.176C286.872 36.904 286.684 36.696 286.444 36.552C286.204 36.4 285.928 36.324 285.616 36.324C285.304 36.324 285.024 36.4 284.776 36.552C284.536 36.696 284.344 36.908 284.2 37.188C284.056 37.46 283.984 37.788 283.984 38.172V42H283.084ZM296.263 42.144C295.815 42.144 295.407 42.04 295.039 41.832C294.671 41.616 294.379 41.32 294.163 40.944C293.955 40.56 293.851 40.12 293.851 39.624V35.568H294.751V39.516C294.751 39.86 294.819 40.164 294.955 40.428C295.099 40.684 295.295 40.884 295.543 41.028C295.799 41.172 296.091 41.244 296.419 41.244C296.747 41.244 297.039 41.172 297.295 41.028C297.551 40.876 297.751 40.664 297.895 40.392C298.039 40.112 298.111 39.78 298.111 39.396V35.568H299.011V42H298.111V40.752L298.315 40.8C298.163 41.216 297.903 41.544 297.535 41.784C297.167 42.024 296.743 42.144 296.263 42.144ZM302.722 42.144C302.314 42.144 301.95 42.068 301.63 41.916C301.31 41.756 301.058 41.54 300.874 41.268C300.69 40.996 300.598 40.684 300.598 40.332C300.598 39.996 300.67 39.692 300.814 39.42C300.958 39.14 301.182 38.904 301.486 38.712C301.79 38.52 302.178 38.384 302.65 38.304L305.17 37.884V38.7L302.866 39.084C302.402 39.164 302.066 39.312 301.858 39.528C301.658 39.744 301.558 40 301.558 40.296C301.558 40.584 301.67 40.828 301.894 41.028C302.126 41.228 302.422 41.328 302.782 41.328C303.222 41.328 303.606 41.236 303.934 41.052C304.262 40.86 304.518 40.604 304.702 40.284C304.886 39.964 304.978 39.608 304.978 39.216V37.584C304.978 37.2 304.838 36.888 304.558 36.648C304.278 36.408 303.914 36.288 303.465 36.288C303.074 36.288 302.73 36.388 302.434 36.588C302.138 36.78 301.918 37.032 301.774 37.344L300.958 36.9C301.078 36.628 301.266 36.38 301.521 36.156C301.786 35.932 302.086 35.756 302.422 35.628C302.758 35.492 303.106 35.424 303.465 35.424C303.938 35.424 304.354 35.516 304.714 35.7C305.082 35.884 305.366 36.14 305.566 36.468C305.774 36.788 305.878 37.16 305.878 37.584V42H304.978V40.716L305.11 40.848C304.998 41.088 304.822 41.308 304.582 41.508C304.35 41.7 304.074 41.856 303.754 41.976C303.442 42.088 303.098 42.144 302.722 42.144ZM165.056 57V48.06H168.128C168.712 48.06 169.224 48.176 169.664 48.408C170.104 48.632 170.444 48.952 170.684 49.368C170.932 49.776 171.056 50.252 171.056 50.796C171.056 51.34 170.932 51.816 170.684 52.224C170.444 52.632 170.104 52.952 169.664 53.184C169.232 53.408 168.72 53.52 168.128 53.52H166.016V57H165.056ZM166.016 52.62H168.176C168.56 52.62 168.896 52.548 169.184 52.404C169.472 52.252 169.696 52.04 169.856 51.768C170.016 51.488 170.096 51.16 170.096 50.784C170.096 50.408 170.016 50.084 169.856 49.812C169.696 49.54 169.472 49.332 169.184 49.188C168.896 49.036 168.56 48.96 168.176 48.96H166.016V52.62ZM172.635 57V50.568H173.535V51.624L173.415 51.468C173.567 51.164 173.795 50.924 174.099 50.748C174.411 50.572 174.787 50.484 175.227 50.484H175.635V51.384H175.071C174.607 51.384 174.235 51.528 173.955 51.816C173.675 52.104 173.535 52.512 173.535 53.04V57H172.635ZM179.618 57.144C179.018 57.144 178.474 57 177.986 56.712C177.506 56.416 177.126 56.012 176.846 55.5C176.566 54.988 176.426 54.408 176.426 53.76C176.426 53.112 176.562 52.54 176.834 52.044C177.106 51.54 177.474 51.144 177.938 50.856C178.41 50.568 178.938 50.424 179.522 50.424C179.986 50.424 180.398 50.512 180.758 50.688C181.126 50.856 181.438 51.088 181.694 51.384C181.95 51.672 182.146 52 182.282 52.368C182.418 52.728 182.486 53.1 182.486 53.484C182.486 53.564 182.482 53.656 182.474 53.76C182.466 53.856 182.454 53.956 182.438 54.06H177.002V53.22H181.922L181.49 53.58C181.562 53.14 181.51 52.748 181.334 52.404C181.166 52.052 180.922 51.776 180.602 51.576C180.282 51.368 179.922 51.264 179.522 51.264C179.122 51.264 178.75 51.368 178.406 51.576C178.07 51.784 177.806 52.076 177.614 52.452C177.422 52.82 177.346 53.26 177.386 53.772C177.346 54.284 177.426 54.732 177.626 55.116C177.834 55.492 178.114 55.784 178.466 55.992C178.826 56.2 179.21 56.304 179.618 56.304C180.09 56.304 180.486 56.192 180.806 55.968C181.126 55.744 181.386 55.464 181.586 55.128L182.354 55.536C182.226 55.824 182.03 56.092 181.766 56.34C181.502 56.58 181.186 56.776 180.818 56.928C180.458 57.072 180.058 57.144 179.618 57.144ZM184.072 57V50.568H184.972V51.792L184.828 51.612C185.004 51.236 185.264 50.944 185.608 50.736C185.96 50.528 186.344 50.424 186.76 50.424C187.256 50.424 187.704 50.564 188.104 50.844C188.504 51.124 188.788 51.488 188.956 51.936L188.704 51.948C188.864 51.452 189.14 51.076 189.532 50.82C189.932 50.556 190.372 50.424 190.852 50.424C191.284 50.424 191.68 50.528 192.04 50.736C192.408 50.944 192.7 51.232 192.916 51.6C193.14 51.96 193.252 52.368 193.252 52.824V57H192.352V53.172C192.352 52.78 192.28 52.448 192.136 52.176C192 51.904 191.812 51.696 191.572 51.552C191.332 51.4 191.056 51.324 190.744 51.324C190.44 51.324 190.164 51.4 189.916 51.552C189.668 51.696 189.472 51.908 189.328 52.188C189.184 52.46 189.112 52.788 189.112 53.172V57H188.212V53.172C188.212 52.78 188.14 52.448 187.996 52.176C187.86 51.904 187.672 51.696 187.432 51.552C187.192 51.4 186.916 51.324 186.604 51.324C186.292 51.324 186.012 51.4 185.764 51.552C185.524 51.696 185.332 51.908 185.188 52.188C185.044 52.46 184.972 52.788 184.972 53.172V57H184.072ZM194.971 57V50.568H195.871V57H194.971ZM194.971 49.38V48.06H195.871V49.38H194.971ZM199.993 57.144C199.545 57.144 199.137 57.04 198.769 56.832C198.401 56.616 198.109 56.32 197.893 55.944C197.685 55.56 197.581 55.12 197.581 54.624V50.568H198.481V54.516C198.481 54.86 198.549 55.164 198.685 55.428C198.829 55.684 199.025 55.884 199.273 56.028C199.529 56.172 199.821 56.244 200.149 56.244C200.477 56.244 200.769 56.172 201.025 56.028C201.281 55.876 201.481 55.664 201.625 55.392C201.769 55.112 201.841 54.78 201.841 54.396V50.568H202.741V57H201.841V55.752L202.045 55.8C201.893 56.216 201.633 56.544 201.265 56.784C200.897 57.024 200.473 57.144 199.993 57.144ZM204.592 57V50.568H205.492V51.792L205.348 51.612C205.524 51.236 205.784 50.944 206.128 50.736C206.48 50.528 206.864 50.424 207.28 50.424C207.776 50.424 208.224 50.564 208.624 50.844C209.024 51.124 209.308 51.488 209.476 51.936L209.224 51.948C209.384 51.452 209.66 51.076 210.052 50.82C210.452 50.556 210.892 50.424 211.372 50.424C211.804 50.424 212.2 50.528 212.56 50.736C212.928 50.944 213.22 51.232 213.436 51.6C213.66 51.96 213.772 52.368 213.772 52.824V57H212.872V53.172C212.872 52.78 212.8 52.448 212.656 52.176C212.52 51.904 212.332 51.696 212.092 51.552C211.852 51.4 211.576 51.324 211.264 51.324C210.96 51.324 210.684 51.4 210.436 51.552C210.188 51.696 209.992 51.908 209.848 52.188C209.704 52.46 209.632 52.788 209.632 53.172V57H208.732V53.172C208.732 52.78 208.66 52.448 208.516 52.176C208.38 51.904 208.192 51.696 207.952 51.552C207.712 51.4 207.436 51.324 207.124 51.324C206.812 51.324 206.532 51.4 206.284 51.552C206.044 51.696 205.852 51.908 205.708 52.188C205.564 52.46 205.492 52.788 205.492 53.172V57H204.592ZM217.529 57V50.568H218.429V51.816L218.225 51.768C218.385 51.352 218.645 51.024 219.005 50.784C219.373 50.544 219.797 50.424 220.277 50.424C220.733 50.424 221.141 50.528 221.501 50.736C221.869 50.944 222.157 51.232 222.365 51.6C222.581 51.96 222.689 52.368 222.689 52.824V57H221.789V53.172C221.789 52.78 221.717 52.448 221.573 52.176C221.437 51.904 221.241 51.696 220.985 51.552C220.737 51.4 220.449 51.324 220.121 51.324C219.793 51.324 219.501 51.4 219.245 51.552C218.989 51.696 218.789 51.908 218.645 52.188C218.501 52.46 218.429 52.788 218.429 53.172V57H217.529ZM224.408 57V47.916H225.308V51.816L225.104 51.768C225.264 51.352 225.524 51.024 225.884 50.784C226.252 50.544 226.676 50.424 227.156 50.424C227.612 50.424 228.02 50.528 228.38 50.736C228.748 50.944 229.036 51.232 229.244 51.6C229.46 51.96 229.568 52.368 229.568 52.824V57H228.668V53.172C228.668 52.78 228.596 52.448 228.452 52.176C228.308 51.904 228.108 51.696 227.852 51.552C227.604 51.4 227.32 51.324 227 51.324C226.68 51.324 226.392 51.4 226.136 51.552C225.88 51.696 225.676 51.908 225.524 52.188C225.38 52.46 225.308 52.788 225.308 53.172V57H224.408ZM234.215 57.144C233.615 57.144 233.071 57 232.583 56.712C232.103 56.416 231.723 56.012 231.443 55.5C231.163 54.988 231.023 54.408 231.023 53.76C231.023 53.112 231.159 52.54 231.431 52.044C231.703 51.54 232.071 51.144 232.535 50.856C233.007 50.568 233.535 50.424 234.119 50.424C234.583 50.424 234.995 50.512 235.355 50.688C235.723 50.856 236.035 51.088 236.291 51.384C236.547 51.672 236.743 52 236.879 52.368C237.015 52.728 237.083 53.1 237.083 53.484C237.083 53.564 237.079 53.656 237.071 53.76C237.063 53.856 237.051 53.956 237.035 54.06H231.599V53.22H236.519L236.087 53.58C236.159 53.14 236.107 52.748 235.931 52.404C235.763 52.052 235.519 51.776 235.199 51.576C234.879 51.368 234.519 51.264 234.119 51.264C233.719 51.264 233.347 51.368 233.003 51.576C232.667 51.784 232.403 52.076 232.211 52.452C232.019 52.82 231.943 53.26 231.983 53.772C231.943 54.284 232.023 54.732 232.223 55.116C232.431 55.492 232.711 55.784 233.063 55.992C233.423 56.2 233.807 56.304 234.215 56.304C234.687 56.304 235.083 56.192 235.403 55.968C235.723 55.744 235.983 55.464 236.183 55.128L236.951 55.536C236.823 55.824 236.627 56.092 236.363 56.34C236.099 56.58 235.783 56.776 235.415 56.928C235.055 57.072 234.655 57.144 234.215 57.144ZM233.603 49.32L234.647 47.52H235.883L234.515 49.32H233.603ZM239.018 54.432L238.958 48.06H239.918L239.858 54.432H239.018ZM238.958 57V55.68H239.918V57H238.958Z" fill="#060606"/>
<rect x="164.5" y="66.5" width="82" height="26" rx="13" fill="white"/>
<rect x="164.5" y="66.5" width="82" height="26" rx="13" stroke="#B4D09D"/>
<path d="M184.556 84V76.14H182.132V75.06H188.132V76.14H185.744V84H184.556ZM191.362 84.144C190.738 84.144 190.174 84 189.67 83.712C189.166 83.416 188.766 83.012 188.47 82.5C188.174 81.988 188.026 81.408 188.026 80.76C188.026 80.112 188.17 79.536 188.458 79.032C188.754 78.528 189.154 78.128 189.658 77.832C190.162 77.536 190.73 77.388 191.362 77.388H192.682C192.778 77.388 192.87 77.376 192.958 77.352C193.054 77.32 193.13 77.26 193.186 77.172C193.25 77.084 193.282 76.948 193.282 76.764C193.282 76.612 193.258 76.456 193.21 76.296C193.162 76.136 193.102 75.976 193.03 75.816H194.074C194.146 75.984 194.21 76.152 194.266 76.32C194.322 76.48 194.35 76.664 194.35 76.872C194.35 77.272 194.246 77.584 194.038 77.808C193.83 78.024 193.562 78.16 193.234 78.216L193.294 77.988C193.718 78.284 194.054 78.672 194.302 79.152C194.558 79.624 194.686 80.16 194.686 80.76C194.686 81.416 194.534 82 194.23 82.512C193.926 83.016 193.522 83.416 193.018 83.712C192.522 84 191.97 84.144 191.362 84.144ZM191.362 83.064C191.762 83.064 192.122 82.964 192.442 82.764C192.77 82.564 193.026 82.288 193.21 81.936C193.402 81.584 193.498 81.192 193.498 80.76C193.498 80.32 193.402 79.932 193.21 79.596C193.026 79.252 192.77 78.98 192.442 78.78C192.122 78.572 191.762 78.468 191.362 78.468C190.954 78.468 190.586 78.572 190.258 78.78C189.938 78.98 189.682 79.252 189.49 79.596C189.298 79.932 189.202 80.32 189.202 80.76C189.202 81.192 189.298 81.584 189.49 81.936C189.682 82.288 189.938 82.564 190.258 82.764C190.586 82.964 190.954 83.064 191.362 83.064ZM190.798 76.32L191.746 74.424H193.258L191.914 76.32H190.798ZM196.141 84V77.532H197.257V84H196.141ZM196.141 76.5V75.06H197.257V76.5H196.141ZM201.063 84V74.916H202.179V84H201.063ZM206.203 84.144C205.739 84.144 205.319 84.036 204.943 83.82C204.575 83.604 204.287 83.304 204.079 82.92C203.879 82.528 203.779 82.08 203.779 81.576V77.532H204.895V81.456C204.895 81.776 204.959 82.056 205.087 82.296C205.223 82.536 205.407 82.724 205.639 82.86C205.879 82.996 206.151 83.064 206.455 83.064C206.759 83.064 207.027 82.996 207.259 82.86C207.499 82.724 207.683 82.528 207.811 82.272C207.947 82.016 208.015 81.712 208.015 81.36V77.532H209.143V84H208.051V82.74L208.231 82.848C208.079 83.256 207.819 83.576 207.451 83.808C207.091 84.032 206.675 84.144 206.203 84.144ZM213.944 84.144C213.32 84.144 212.756 84 212.252 83.712C211.748 83.416 211.348 83.012 211.052 82.5C210.756 81.988 210.608 81.408 210.608 80.76C210.608 80.112 210.752 79.536 211.04 79.032C211.336 78.528 211.736 78.128 212.24 77.832C212.744 77.536 213.312 77.388 213.944 77.388C214.568 77.388 215.132 77.536 215.636 77.832C216.14 78.12 216.536 78.516 216.824 79.02C217.12 79.524 217.268 80.104 217.268 80.76C217.268 81.416 217.116 82 216.812 82.512C216.508 83.016 216.104 83.416 215.6 83.712C215.104 84 214.552 84.144 213.944 84.144ZM213.944 83.064C214.344 83.064 214.704 82.964 215.024 82.764C215.352 82.564 215.608 82.288 215.792 81.936C215.984 81.584 216.08 81.192 216.08 80.76C216.08 80.32 215.984 79.932 215.792 79.596C215.608 79.252 215.352 78.98 215.024 78.78C214.704 78.572 214.344 78.468 213.944 78.468C213.536 78.468 213.168 78.572 212.84 78.78C212.52 78.98 212.264 79.252 212.072 79.596C211.88 79.932 211.784 80.32 211.784 80.76C211.784 81.192 211.88 81.584 212.072 81.936C212.264 82.288 212.52 82.564 212.84 82.764C213.168 82.964 213.536 83.064 213.944 83.064ZM211.868 76.32L213.296 74.46H214.58L216.02 76.32H214.796L213.944 75.228L213.092 76.32H211.868ZM218.723 84V77.532H219.815V78.792L219.635 78.684C219.795 78.276 220.051 77.96 220.403 77.736C220.763 77.504 221.183 77.388 221.663 77.388C222.127 77.388 222.539 77.492 222.899 77.7C223.267 77.908 223.555 78.196 223.763 78.564C223.979 78.932 224.087 79.348 224.087 79.812V84H222.959V80.172C222.959 79.812 222.895 79.508 222.767 79.26C222.639 79.012 222.455 78.82 222.215 78.684C221.983 78.54 221.715 78.468 221.411 78.468C221.107 78.468 220.835 78.54 220.595 78.684C220.363 78.82 220.179 79.016 220.043 79.272C219.907 79.52 219.839 79.82 219.839 80.172V84H218.723ZM226.176 81.384L226.104 75.06H227.28L227.196 81.384H226.176ZM226.104 84V82.56H227.28V84H226.104Z" fill="#060606"/>
<path d="M261.17 84V77.3H259.11V76.55H264.01V77.3H261.97V84H261.17ZM264.737 84V78.64H265.487V84H264.737ZM264.727 77.6L263.587 76.1H264.617L265.487 77.6H264.727ZM266.879 84V78.64H267.629V79.66L267.509 79.51C267.656 79.1967 267.873 78.9533 268.159 78.78C268.453 78.6067 268.773 78.52 269.119 78.52C269.533 78.52 269.906 78.6367 270.239 78.87C270.573 79.1033 270.809 79.4067 270.949 79.78L270.739 79.79C270.873 79.3767 271.103 79.0633 271.429 78.85C271.763 78.63 272.129 78.52 272.529 78.52C272.889 78.52 273.219 78.6067 273.519 78.78C273.826 78.9533 274.069 79.1933 274.249 79.5C274.436 79.8 274.529 80.14 274.529 80.52V84H273.779V80.81C273.779 80.4833 273.719 80.2067 273.599 79.98C273.486 79.7533 273.329 79.58 273.129 79.46C272.929 79.3333 272.699 79.27 272.439 79.27C272.186 79.27 271.956 79.3333 271.749 79.46C271.543 79.58 271.379 79.7567 271.259 79.99C271.139 80.2167 271.079 80.49 271.079 80.81V84H270.329V80.81C270.329 80.4833 270.269 80.2067 270.149 79.98C270.036 79.7533 269.879 79.58 269.679 79.46C269.479 79.3333 269.249 79.27 268.989 79.27C268.729 79.27 268.496 79.3333 268.289 79.46C268.089 79.58 267.929 79.7567 267.809 79.99C267.689 80.2167 267.629 80.49 267.629 80.81V84H266.879ZM277.661 84V76.43H278.411V79.68L278.241 79.64C278.374 79.2933 278.591 79.02 278.891 78.82C279.197 78.62 279.551 78.52 279.951 78.52C280.331 78.52 280.671 78.6067 280.971 78.78C281.277 78.9533 281.517 79.1933 281.691 79.5C281.871 79.8 281.961 80.14 281.961 80.52V84H281.211V80.81C281.211 80.4833 281.151 80.2067 281.031 79.98C280.911 79.7533 280.744 79.58 280.531 79.46C280.324 79.3333 280.087 79.27 279.821 79.27C279.554 79.27 279.314 79.3333 279.101 79.46C278.887 79.58 278.717 79.7567 278.591 79.99C278.471 80.2167 278.411 80.49 278.411 80.81V84H277.661ZM283.393 84V78.64H284.143V84H283.393ZM283.393 77.65V76.55H284.143V77.65H283.393ZM288.118 84.12C287.618 84.12 287.165 84 286.758 83.76C286.358 83.5133 286.042 83.1767 285.808 82.75C285.575 82.3233 285.458 81.84 285.458 81.3C285.458 80.76 285.572 80.2833 285.798 79.87C286.025 79.45 286.332 79.12 286.718 78.88C287.112 78.64 287.552 78.52 288.038 78.52C288.425 78.52 288.768 78.5933 289.068 78.74C289.375 78.88 289.635 79.0733 289.848 79.32C290.062 79.56 290.225 79.8333 290.338 80.14C290.452 80.44 290.508 80.75 290.508 81.07C290.508 81.1367 290.505 81.2133 290.498 81.3C290.492 81.38 290.482 81.4633 290.468 81.55H285.938V80.85H290.038L289.678 81.15C289.738 80.7833 289.695 80.4567 289.548 80.17C289.408 79.8767 289.205 79.6467 288.938 79.48C288.672 79.3067 288.372 79.22 288.038 79.22C287.705 79.22 287.395 79.3067 287.108 79.48C286.828 79.6533 286.608 79.8967 286.448 80.21C286.288 80.5167 286.225 80.8833 286.258 81.31C286.225 81.7367 286.292 82.11 286.458 82.43C286.632 82.7433 286.865 82.9867 287.158 83.16C287.458 83.3333 287.778 83.42 288.118 83.42C288.512 83.42 288.842 83.3267 289.108 83.14C289.375 82.9533 289.592 82.72 289.758 82.44L290.398 82.78C290.292 83.02 290.128 83.2433 289.908 83.45C289.688 83.65 289.425 83.8133 289.118 83.94C288.818 84.06 288.485 84.12 288.118 84.12ZM286.368 77.6L287.568 76.2H288.408L289.618 77.6H288.738L287.988 76.79L287.248 77.6H286.368ZM289.458 76.9L289.128 76.45C289.295 76.3967 289.418 76.3233 289.498 76.23C289.578 76.1367 289.618 76.0233 289.618 75.89C289.618 75.7767 289.572 75.68 289.478 75.6C289.385 75.5133 289.262 75.47 289.108 75.47C289.028 75.47 288.952 75.4767 288.878 75.49C288.805 75.5033 288.708 75.5367 288.588 75.59L288.468 75.08C288.602 75.0067 288.728 74.96 288.848 74.94C288.975 74.9133 289.092 74.9 289.198 74.9C289.532 74.9 289.802 74.99 290.008 75.17C290.215 75.3433 290.318 75.57 290.318 75.85C290.318 76.0767 290.238 76.2867 290.078 76.48C289.918 76.6667 289.712 76.8067 289.458 76.9ZM293.731 84.12C293.357 84.12 293.017 84.0333 292.711 83.86C292.404 83.68 292.161 83.4333 291.981 83.12C291.807 82.8 291.721 82.4333 291.721 82.02V78.64H292.471V81.93C292.471 82.2167 292.527 82.47 292.641 82.69C292.761 82.9033 292.924 83.07 293.131 83.19C293.344 83.31 293.587 83.37 293.861 83.37C294.134 83.37 294.377 83.31 294.591 83.19C294.804 83.0633 294.971 82.8867 295.091 82.66C295.211 82.4267 295.271 82.15 295.271 81.83V78.64H296.021V84H295.271V82.96L295.441 83C295.314 83.3467 295.097 83.62 294.791 83.82C294.484 84.02 294.131 84.12 293.731 84.12ZM301.312 84.06C300.832 84.06 300.462 83.92 300.202 83.64C299.942 83.36 299.812 82.96 299.812 82.44V79.39H298.822V78.64H299.072C299.299 78.64 299.479 78.5667 299.612 78.42C299.746 78.2667 299.812 78.0767 299.812 77.85V77.4H300.562V78.64H301.742V79.39H300.562V82.44C300.562 82.62 300.589 82.78 300.642 82.92C300.696 83.0533 300.786 83.16 300.912 83.24C301.046 83.32 301.222 83.36 301.442 83.36C301.496 83.36 301.559 83.3567 301.632 83.35C301.706 83.3433 301.769 83.3367 301.822 83.33V84C301.742 84.02 301.652 84.0333 301.552 84.04C301.452 84.0533 301.372 84.06 301.312 84.06ZM303.139 84V76.43H303.889V79.68L303.719 79.64C303.852 79.2933 304.069 79.02 304.369 78.82C304.676 78.62 305.029 78.52 305.429 78.52C305.809 78.52 306.149 78.6067 306.449 78.78C306.756 78.9533 306.996 79.1933 307.169 79.5C307.349 79.8 307.439 80.14 307.439 80.52V84H306.689V80.81C306.689 80.4833 306.629 80.2067 306.509 79.98C306.389 79.7533 306.222 79.58 306.009 79.46C305.802 79.3333 305.566 79.27 305.299 79.27C305.032 79.27 304.792 79.3333 304.579 79.46C304.366 79.58 304.196 79.7567 304.069 79.99C303.949 80.2167 303.889 80.49 303.889 80.81V84H303.139ZM311.312 84.12C310.812 84.12 310.358 84 309.952 83.76C309.552 83.5133 309.235 83.1767 309.002 82.75C308.768 82.3233 308.652 81.84 308.652 81.3C308.652 80.76 308.765 80.2833 308.992 79.87C309.218 79.45 309.525 79.12 309.912 78.88C310.305 78.64 310.745 78.52 311.232 78.52C311.618 78.52 311.962 78.5933 312.262 78.74C312.568 78.88 312.828 79.0733 313.042 79.32C313.255 79.56 313.418 79.8333 313.532 80.14C313.645 80.44 313.702 80.75 313.702 81.07C313.702 81.1367 313.698 81.2133 313.692 81.3C313.685 81.38 313.675 81.4633 313.662 81.55H309.132V80.85H313.232L312.872 81.15C312.932 80.7833 312.888 80.4567 312.742 80.17C312.602 79.8767 312.398 79.6467 312.132 79.48C311.865 79.3067 311.565 79.22 311.232 79.22C310.898 79.22 310.588 79.3067 310.302 79.48C310.022 79.6533 309.802 79.8967 309.642 80.21C309.482 80.5167 309.418 80.8833 309.452 81.31C309.418 81.7367 309.485 82.11 309.652 82.43C309.825 82.7433 310.058 82.9867 310.352 83.16C310.652 83.3333 310.972 83.42 311.312 83.42C311.705 83.42 312.035 83.3267 312.302 83.14C312.568 82.9533 312.785 82.72 312.952 82.44L313.592 82.78C313.485 83.02 313.322 83.2433 313.102 83.45C312.882 83.65 312.618 83.8133 312.312 83.94C312.012 84.06 311.678 84.12 311.312 84.12ZM309.562 77.6L310.762 76.1H311.602L312.812 77.6H311.932L311.182 76.69L310.442 77.6H309.562ZM315.024 84V78.64H315.774V79.66L315.654 79.51C315.801 79.1967 316.017 78.9533 316.304 78.78C316.597 78.6067 316.917 78.52 317.264 78.52C317.677 78.52 318.051 78.6367 318.384 78.87C318.717 79.1033 318.954 79.4067 319.094 79.78L318.884 79.79C319.017 79.3767 319.247 79.0633 319.574 78.85C319.907 78.63 320.274 78.52 320.674 78.52C321.034 78.52 321.364 78.6067 321.664 78.78C321.971 78.9533 322.214 79.1933 322.394 79.5C322.581 79.8 322.674 80.14 322.674 80.52V84H321.924V80.81C321.924 80.4833 321.864 80.2067 321.744 79.98C321.631 79.7533 321.474 79.58 321.274 79.46C321.074 79.3333 320.844 79.27 320.584 79.27C320.331 79.27 320.101 79.3333 319.894 79.46C319.687 79.58 319.524 79.7567 319.404 79.99C319.284 80.2167 319.224 80.49 319.224 80.81V84H318.474V80.81C318.474 80.4833 318.414 80.2067 318.294 79.98C318.181 79.7533 318.024 79.58 317.824 79.46C317.624 79.3333 317.394 79.27 317.134 79.27C316.874 79.27 316.641 79.3333 316.434 79.46C316.234 79.58 316.074 79.7567 315.954 79.99C315.834 80.2167 315.774 80.49 315.774 80.81V84H315.024Z" fill="#1A6BB1"/>
</g>
<defs>
<clipPath id="clip0_14_569">
<rect width="345" height="100" rx="24" fill="white"/>
</clipPath>
</defs>
</svg>
